<?xml version="1.0" encoding="utf-8"?>
<!-- Generator: Adobe Illustrator 25.2.3, SVG Export Plug-In . SVG Version: 6.00 Build 0)  -->
<svg version="1.1" xmlns="http://www.w3.org/2000/svg" xmlns:xlink="http://www.w3.org/1999/xlink" x="0px" y="0px"
	 viewBox="0 0 6621 3500" style="enable-background:new 0 0 6621 3500;" xml:space="preserve">
<style type="text/css">
	.st0{fill:#A2D5F2;}
	.st1{fill:#EA7659;}
	.st2{opacity:0.3;}
	.st3{fill:#FFFFFF;}
	.st4{fill:#F4A74D;}
	.st5{fill:#FFC97C;}
	.st6{opacity:0.3;fill:#F9F9F9;}
	.st7{display:none;}
	.st8{display:inline;}
	.st9{fill:#F78D3E;}
	.st10{fill:#F17851;}
	.st11{fill:#DEE2E1;}
	.st12{fill:#EA7A2F;}
	.st13{fill:#D3D3D3;}
	.st14{fill:#F79F63;}
	.st15{fill:#79BAAE;}
	.st16{fill:#FFF9F8;}
	.st17{fill:#8BB2CF;}
	.st18{fill:#F9F9F7;}
	.st19{fill:none;stroke:#161414;stroke-width:4.1143;stroke-linecap:round;stroke-linejoin:round;stroke-miterlimit:10;}
	.st20{fill:#121212;}
	.st21{fill:#A2C8DB;}
	.st22{display:inline;fill:#006838;}
	.st23{display:inline;fill:#DBF97F;}
	.st24{display:inline;fill:#CDF966;}
	.st25{clip-path:url(#SVGID_1_);fill:#B9E24E;}
	.st26{clip-path:url(#SVGID_2_);fill:#BBE255;}
	.st27{display:inline;fill:#65AD3C;}
	.st28{display:inline;fill:#83C447;}
	.st29{display:inline;fill:#ABDD43;}
	.st30{display:inline;fill:#77B53E;}
	.st31{fill:#5D291C;}
	.st32{fill:#F9D5AA;}
	.st33{fill:#A3DE83;}
	.st34{fill:#2EB872;}
	.st35{clip-path:url(#SVGID_3_);fill:#DD372F;}
	.st36{display:inline;fill:#C42727;}
	.st37{fill:#6DB63E;}
	.st38{fill:#9A373C;}
	.st39{fill:#7AC141;}
	.st40{display:inline;fill:#89DC3E;}
	.st41{display:inline;fill:#9A373C;}
	.st42{clip-path:url(#SVGID_4_);fill:#BB3D40;}
	.st43{clip-path:url(#SVGID_6_);fill:#457F30;}
	.st44{clip-path:url(#SVGID_8_);fill:#65AD3C;}
	.st45{clip-path:url(#SVGID_10_);fill:#77B53E;}
	.st46{clip-path:url(#SVGID_12_);fill:#EF712B;}
	.st47{display:inline;fill:#DB552C;}
	.st48{clip-path:url(#SVGID_14_);fill:#64B635;}
	.st49{display:inline;fill:#121212;}
	.st50{display:inline;fill:#44882C;}
	.st51{clip-path:url(#SVGID_16_);fill:#4D952F;}
</style>
<g id="Layer_2">
	<rect class="st0" width="6620" height="3500"/>
	<rect y="2864.8" class="st1" width="6621" height="635.2"/>
	<g class="st2">
		<g>
			<polygon class="st3" points="80.6,2864.8 0,2935.3 0,2961.6 110.6,2864.8 			"/>
			<polygon class="st3" points="250.6,2864.8 0,3083.9 0,3110.2 280.6,2864.8 			"/>
			<polygon class="st3" points="420.6,2864.8 0,3232.6 0,3258.8 450.6,2864.8 			"/>
			<polygon class="st3" points="590.5,2864.8 0,3381.2 0,3407.5 620.6,2864.8 			"/>
			<polygon class="st3" points="760.5,2864.8 34.1,3500 64.2,3500 790.6,2864.8 			"/>
			<polygon class="st3" points="930.5,2864.8 204.1,3500 234.1,3500 960.6,2864.8 			"/>
			<polygon class="st3" points="1100.5,2864.8 374.1,3500 404.1,3500 1130.5,2864.8 			"/>
			<polygon class="st3" points="1270.5,2864.8 544.1,3500 574.1,3500 1300.5,2864.8 			"/>
			<polygon class="st3" points="1440.5,2864.8 714,3500 744.1,3500 1470.5,2864.8 			"/>
			<polygon class="st3" points="1610.4,2864.8 884,3500 914.1,3500 1640.5,2864.8 			"/>
			<polygon class="st3" points="1780.4,2864.8 1054,3500 1084.1,3500 1810.5,2864.8 			"/>
			<polygon class="st3" points="1950.4,2864.8 1224,3500 1254,3500 1980.5,2864.8 			"/>
			<polygon class="st3" points="2120.4,2864.8 1394,3500 1424,3500 2150.4,2864.8 			"/>
			<polygon class="st3" points="2290.4,2864.8 1564,3500 1594,3500 2320.4,2864.8 			"/>
			<polygon class="st3" points="2460.4,2864.8 1734,3500 1764,3500 2490.4,2864.8 			"/>
			<polygon class="st3" points="2630.4,2864.8 1903.9,3500 1934,3500 2660.4,2864.8 			"/>
			<polygon class="st3" points="2800.3,2864.8 2073.9,3500 2104,3500 2830.4,2864.8 			"/>
			<polygon class="st3" points="2970.3,2864.8 2243.9,3500 2274,3500 3000.4,2864.8 			"/>
			<polygon class="st3" points="3140.3,2864.8 2413.9,3500 2443.9,3500 3170.4,2864.8 			"/>
			<polygon class="st3" points="3310.3,2864.8 2583.9,3500 2613.9,3500 3340.3,2864.8 			"/>
			<polygon class="st3" points="3480.3,2864.8 2753.9,3500 2783.9,3500 3510.3,2864.8 			"/>
			<polygon class="st3" points="3650.3,2864.8 2923.8,3500 2953.9,3500 3680.3,2864.8 			"/>
			<polygon class="st3" points="3820.2,2864.8 3093.8,3500 3123.9,3500 3850.3,2864.8 			"/>
			<polygon class="st3" points="3990.2,2864.8 3263.8,3500 3293.9,3500 4020.3,2864.8 			"/>
			<polygon class="st3" points="4160.2,2864.8 3433.8,3500 3463.8,3500 4190.3,2864.8 			"/>
			<polygon class="st3" points="4330.2,2864.8 3603.8,3500 3633.8,3500 4360.2,2864.8 			"/>
			<polygon class="st3" points="4500.2,2864.8 3773.8,3500 3803.8,3500 4530.2,2864.8 			"/>
			<polygon class="st3" points="4670.2,2864.8 3943.7,3500 3973.8,3500 4700.2,2864.8 			"/>
			<polygon class="st3" points="4840.1,2864.8 4113.7,3500 4143.8,3500 4870.2,2864.8 			"/>
			<polygon class="st3" points="5010.1,2864.8 4283.7,3500 4313.8,3500 5040.2,2864.8 			"/>
			<polygon class="st3" points="5180.1,2864.8 4453.7,3500 4483.7,3500 5210.2,2864.8 			"/>
			<polygon class="st3" points="5350.1,2864.8 4623.7,3500 4653.7,3500 5380.1,2864.8 			"/>
			<polygon class="st3" points="5520.1,2864.8 4793.7,3500 4823.7,3500 5550.1,2864.8 			"/>
			<polygon class="st3" points="5690.1,2864.8 4963.6,3500 4993.7,3500 5720.1,2864.8 			"/>
			<polygon class="st3" points="5860,2864.8 5133.6,3500 5163.7,3500 5890.1,2864.8 			"/>
			<polygon class="st3" points="6030,2864.8 5303.6,3500 5333.7,3500 6060.1,2864.8 			"/>
			<polygon class="st3" points="6200,2864.8 5473.6,3500 5503.6,3500 6230.1,2864.8 			"/>
			<polygon class="st3" points="6370,2864.8 5643.6,3500 5673.6,3500 6400,2864.8 			"/>
			<polygon class="st3" points="6540,2864.8 5813.6,3500 5843.6,3500 6570,2864.8 			"/>
			<polygon class="st3" points="6640,2926 5983.6,3500 6013.6,3500 6640,2952.3 			"/>
			<polygon class="st3" points="6640,3074.6 6153.5,3500 6183.6,3500 6640,3100.9 			"/>
			<polygon class="st3" points="6640,3223.3 6323.5,3500 6353.6,3500 6640,3249.5 			"/>
			<polygon class="st3" points="6640,3371.9 6493.5,3500 6523.6,3500 6640,3398.2 			"/>
			<polygon class="st3" points="0,2864.8 0,2886.7 25,2864.8 			"/>
			<polygon class="st3" points="164.9,2864.8 0,3009 0,3035.3 195,2864.8 			"/>
			<polygon class="st3" points="334.9,2864.8 0,3157.7 0,3183.9 365,2864.8 			"/>
			<polygon class="st3" points="504.9,2864.8 0,3306.3 0,3332.6 534.9,2864.8 			"/>
			<polygon class="st3" points="674.9,2864.8 0,3454.9 0,3481.2 704.9,2864.8 			"/>
			<polygon class="st3" points="844.9,2864.8 118.4,3500 148.5,3500 874.9,2864.8 			"/>
			<polygon class="st3" points="1014.8,2864.8 288.4,3500 318.5,3500 1044.9,2864.8 			"/>
			<polygon class="st3" points="1184.8,2864.8 458.4,3500 488.5,3500 1214.9,2864.8 			"/>
			<polygon class="st3" points="1354.8,2864.8 628.4,3500 658.4,3500 1384.9,2864.8 			"/>
			<polygon class="st3" points="1524.8,2864.8 798.4,3500 828.4,3500 1554.8,2864.8 			"/>
			<polygon class="st3" points="1694.8,2864.8 968.4,3500 998.4,3500 1724.8,2864.8 			"/>
			<polygon class="st3" points="1864.8,2864.8 1138.3,3500 1168.4,3500 1894.8,2864.8 			"/>
			<polygon class="st3" points="2034.7,2864.8 1308.3,3500 1338.4,3500 2064.8,2864.8 			"/>
			<polygon class="st3" points="2204.7,2864.8 1478.3,3500 1508.4,3500 2234.8,2864.8 			"/>
			<polygon class="st3" points="2374.7,2864.8 1648.3,3500 1678.3,3500 2404.8,2864.8 			"/>
			<polygon class="st3" points="2544.7,2864.8 1818.3,3500 1848.3,3500 2574.7,2864.8 			"/>
			<polygon class="st3" points="2714.7,2864.8 1988.3,3500 2018.3,3500 2744.7,2864.8 			"/>
			<polygon class="st3" points="2884.7,2864.8 2158.2,3500 2188.3,3500 2914.7,2864.8 			"/>
			<polygon class="st3" points="3054.6,2864.8 2328.2,3500 2358.3,3500 3084.7,2864.8 			"/>
			<polygon class="st3" points="3224.6,2864.8 2498.2,3500 2528.3,3500 3254.7,2864.8 			"/>
			<polygon class="st3" points="3394.6,2864.8 2668.2,3500 2698.2,3500 3424.7,2864.8 			"/>
			<polygon class="st3" points="3564.6,2864.8 2838.2,3500 2868.2,3500 3594.6,2864.8 			"/>
			<polygon class="st3" points="3734.6,2864.8 3008.2,3500 3038.2,3500 3764.6,2864.8 			"/>
			<polygon class="st3" points="3904.6,2864.8 3178.2,3500 3208.2,3500 3934.6,2864.8 			"/>
			<polygon class="st3" points="4074.6,2864.8 3348.1,3500 3378.2,3500 4104.6,2864.8 			"/>
			<polygon class="st3" points="4244.5,2864.8 3518.1,3500 3548.2,3500 4274.6,2864.8 			"/>
			<polygon class="st3" points="4414.5,2864.8 3688.1,3500 3718.2,3500 4444.6,2864.8 			"/>
			<polygon class="st3" points="4584.5,2864.8 3858.1,3500 3888.1,3500 4614.6,2864.8 			"/>
			<polygon class="st3" points="4754.5,2864.8 4028.1,3500 4058.1,3500 4784.5,2864.8 			"/>
			<polygon class="st3" points="4924.5,2864.8 4198.1,3500 4228.1,3500 4954.5,2864.8 			"/>
			<polygon class="st3" points="5094.5,2864.8 4368,3500 4398.1,3500 5124.5,2864.8 			"/>
			<polygon class="st3" points="5264.4,2864.8 4538,3500 4568.1,3500 5294.5,2864.8 			"/>
			<polygon class="st3" points="5434.4,2864.8 4708,3500 4738.1,3500 5464.5,2864.8 			"/>
			<polygon class="st3" points="5604.4,2864.8 4878,3500 4908,3500 5634.5,2864.8 			"/>
			<polygon class="st3" points="5774.4,2864.8 5048,3500 5078,3500 5804.4,2864.8 			"/>
			<polygon class="st3" points="5944.4,2864.8 5218,3500 5248,3500 5974.4,2864.8 			"/>
			<polygon class="st3" points="6114.4,2864.8 5387.9,3500 5418,3500 6144.4,2864.8 			"/>
			<polygon class="st3" points="6284.3,2864.8 5557.9,3500 5588,3500 6314.4,2864.8 			"/>
			<polygon class="st3" points="6454.3,2864.8 5727.9,3500 5758,3500 6484.4,2864.8 			"/>
			<polygon class="st3" points="6640,2864.8 6624.3,2864.8 5897.9,3500 5927.9,3500 6640,2877.4 			"/>
			<polygon class="st3" points="6640,2999.7 6067.9,3500 6097.9,3500 6640,3026 			"/>
			<polygon class="st3" points="6640,3148.4 6237.9,3500 6267.9,3500 6640,3174.6 			"/>
			<polygon class="st3" points="6640,3297 6407.8,3500 6437.9,3500 6640,3323.3 			"/>
		</g>
	</g>
</g>
<g id="Layer_1">
	<g>
		<path class="st4" d="M863.3,2300.1l-29.9,439.3c24-19,108.7-90.9,116.9-206.5C959.1,2407.2,884,2319.8,863.3,2300.1z
			 M881.6,2364.3c6-15.6,14.9-1.5,23.6,15.2c15.1,28.8,20.1,66.7,1.5,69.1S875.6,2379.9,881.6,2364.3z"/>
		<path class="st5" d="M744.5,2536.1c3.9,102,63.4,175.3,88.9,203.3l29.9-439.3C838.6,2323,739.5,2407.9,744.5,2536.1z M794,2474.2
			c6.8-9.4,13.7-1.5,12,4.5c-8.4,30.9-11,35-16.9,30.9C783.2,2505.5,787.2,2483.6,794,2474.2z"/>
	</g>
	<g>
		<path class="st4" d="M355,2326.9l456.6,419.5c0.2-43.1-4.3-199.5-124.2-310.2C557.1,2315.9,394.9,2321.6,355,2326.9z
			 M441.6,2363.2c-11.9-20.3,11.5-17.6,37.5-12.6c44.9,8.7,91,36.6,77.3,59.2C542.6,2432.5,453.5,2383.6,441.6,2363.2z"/>
		<path class="st5" d="M509.9,2665.3c115.6,85.4,248.5,84.5,301.8,81.2L355,2326.9C358.5,2374.2,364.5,2557.8,509.9,2665.3z
			 M485.3,2556.3c-4.3-15.8,10.3-16.4,15.5-9.2c26.5,36.4,28.8,42.9,19.1,45.8C510.3,2595.7,489.7,2572,485.3,2556.3z"/>
	</g>
	<g class="st2">
		<path class="st3" d="M3670.8,493.4l61.9-61.9C3711.1,451,3690.4,471.7,3670.8,493.4z"/>
		<path class="st3" d="M3877.5,325.5l-312.7,312.7c-8.3,14.3-16.3,28.8-23.8,43.6l380.1-380.1
			C3906.4,309.2,3891.8,317.1,3877.5,325.5z"/>
		<path class="st3" d="M3992.1,269.5l-483.3,483.3c-4.2,10.5-8.2,21.1-12,31.8l527-527C4013.2,261.3,4002.6,265.3,3992.1,269.5z"/>
		<path class="st3" d="M4080.7,239.6l-601.7,601.7c-2.5,8.9-4.8,17.8-7,26.8l635.6-635.6C4098.5,234.7,4089.6,237.1,4080.7,239.6z"
			/>
		<path class="st3" d="M4156.8,222l-695.4,695.4c-1.4,7.9-2.8,15.8-4,23.8L4180.6,218C4172.7,219.2,4164.7,220.6,4156.8,222z"/>
		<path class="st3" d="M4225.1,212.3l-773.4,773.4c-0.7,7.2-1.4,14.5-1.9,21.7l797.1-797.1C4239.6,211,4232.3,211.6,4225.1,212.3z"
			/>
		<path class="st3" d="M4287.8,208.3l-840.2,840.2c-0.2,6.7-0.3,13.4-0.4,20.2L4308,207.9C4301.2,207.9,4294.5,208.1,4287.8,208.3z"
			/>
		<path class="st3" d="M4346.2,208.5l-898.4,898.4c0.2,6.3,0.5,12.6,0.9,18.9l916.3-916.3C4358.8,209,4352.5,208.7,4346.2,208.5z"/>
		<path class="st3" d="M4401.1,212.2l-949.5,949.5c0.6,6,1.3,11.9,2,17.8l965.3-965.3C4413,213.5,4407,212.8,4401.1,212.2z"/>
		<path class="st3" d="M4452.9,219l-994.5,994.5c0.9,5.6,1.9,11.3,2.9,16.9L4469.8,221.9C4464.2,220.9,4458.5,219.9,4452.9,219z"/>
		<path class="st3" d="M4502.1,228.4L3467.8,1262.7c1.2,5.4,2.4,10.7,3.7,16.1L4518.2,232.2C4512.8,230.9,4507.5,229.6,4502.1,228.4
			z"/>
		<path class="st3" d="M4548.9,240.2L3479.6,1309.5c1.4,5.1,2.9,10.2,4.5,15.3L4564.3,244.7C4559.2,243.1,4554.1,241.6,4548.9,240.2
			z"/>
		<path class="st3" d="M4593.6,254.1L3493.5,1354.2c1.7,4.9,3.4,9.8,5.2,14.6L4608.3,259.3C4603.4,257.5,4598.5,255.8,4593.6,254.1z
			"/>
		<path class="st3" d="M4636.4,270l-1127,1127c1.9,4.7,3.8,9.4,5.8,14L4650.4,275.7C4645.7,273.8,4641.1,271.9,4636.4,270z"/>
		<path class="st3" d="M4677.3,287.7L3527,1437.9c2.1,4.5,4.2,9,6.4,13.4L4690.7,294C4686.3,291.9,4681.8,289.7,4677.3,287.7z"/>
		<path class="st3" d="M4716.5,307L3546.4,1477.2c2.3,4.3,4.6,8.6,6.9,12.9L4729.4,314C4725.1,311.6,4720.8,309.3,4716.5,307z"/>
		<path class="st3" d="M4754.1,328L3567.4,1514.8c2.4,4.1,4.9,8.2,7.5,12.3L4766.5,335.5C4762.4,333,4758.3,330.5,4754.1,328z"/>
		<path class="st3" d="M4790.2,350.6L3590,1550.8c2.6,4,5.3,7.9,8,11.8L4802,358.6C4798.1,355.9,4794.2,353.2,4790.2,350.6z"/>
		<path class="st3" d="M4824.8,374.6L3614,1585.4c2.8,3.8,5.6,7.6,8.5,11.3L4836.1,383.1C4832.4,380.2,4828.6,377.4,4824.8,374.6z"
			/>
		<path class="st3" d="M4857.9,400.1L3639.5,1618.5c2.9,3.6,5.9,7.3,8.9,10.9L4868.8,409.1C4865.2,406.1,4861.5,403.1,4857.9,400.1z
			"/>
		<path class="st3" d="M4889.6,427L3666.4,1650.2c3.1,3.5,6.2,6.9,9.4,10.4L4900,436.4C4896.6,433.3,4893.1,430.1,4889.6,427z"/>
		<path class="st3" d="M4919.9,455.3L3694.7,1680.5c3.3,3.3,6.6,6.6,9.9,9.9L4929.8,465.2C4926.5,461.9,4923.2,458.6,4919.9,455.3z"
			/>
		<path class="st3" d="M4948.8,485L3724.4,1709.4c3.4,3.2,6.9,6.3,10.4,9.4L4958.3,495.4C4955.1,491.9,4952,488.5,4948.8,485z"/>
		<path class="st3" d="M4976.3,516.1L3755.5,1737c3.6,3,7.2,6,10.8,9l1219-1219C4982.3,523.3,4979.4,519.7,4976.3,516.1z"/>
		<path class="st3" d="M5002.4,548.6L3788,1763.1c3.7,2.9,7.5,5.7,11.3,8.5L5010.9,560C5008.1,556.2,5005.3,552.4,5002.4,548.6z"/>
		<path class="st3" d="M5027.1,582.6L3822,1787.7c3.9,2.7,7.8,5.4,11.8,8L5035.1,594.4C5032.5,590.4,5029.8,586.5,5027.1,582.6z"/>
		<path class="st3" d="M5050.3,618L3857.4,1810.9c4.1,2.5,8.2,5,12.3,7.5L5057.8,630.3C5055.3,626.2,5052.8,622.1,5050.3,618z"/>
		<path class="st3" d="M5072,654.9L3894.3,1832.6c4.3,2.4,8.5,4.7,12.8,7L5078.9,667.8C5076.7,663.5,5074.3,659.2,5072,654.9z"/>
		<path class="st3" d="M5092.1,693.5L3932.8,1852.7c4.4,2.2,8.9,4.3,13.4,6.4L5098.5,706.8C5096.4,702.4,5094.2,697.9,5092.1,693.5z
			"/>
		<path class="st3" d="M5110.5,733.6L3973,1871.1c4.6,2,9.3,3.9,14,5.8L5116.3,747.6C5114.4,742.9,5112.5,738.3,5110.5,733.6z"/>
		<path class="st3" d="M5127.2,775.6L4015,1887.8c4.8,1.8,9.7,3.5,14.6,5.2L5132.4,790.2C5130.7,785.3,5128.9,780.4,5127.2,775.6z"
			/>
		<path class="st3" d="M5141.9,819.4L4058.8,1902.6c5.1,1.6,10.2,3.1,15.3,4.5L5146.5,834.7C5145,829.6,5143.5,824.5,5141.9,819.4z"
			/>
		<path class="st3" d="M5154.7,865.3l-1050,1050c5.3,1.3,10.6,2.6,16,3.8L5158.5,881.3C5157.2,876,5156,870.6,5154.7,865.3z"/>
		<path class="st3" d="M5165.1,913.5L4152.8,1925.7c5.6,1,11.2,2,16.8,3l998.5-998.5C5167.2,924.6,5166.2,919,5165.1,913.5z"/>
		<path class="st3" d="M5173.1,964.1l-969.6,969.6c5.9,0.7,11.8,1.4,17.7,2.1l953.9-953.9C5174.5,975.9,5173.8,970,5173.1,964.1z"/>
		<path class="st3" d="M5178.2,1017.6L4257,1938.8c6.2,0.4,12.5,0.7,18.8,1l903.4-903.4C5178.9,1030.1,5178.6,1023.8,5178.2,1017.6z
			"/>
		<path class="st3" d="M5180,1074.4l-866.3,866.3c6.7,0,13.4-0.1,20-0.2l846-846C5179.9,1087.8,5180,1081.1,5180,1074.4z"/>
		<path class="st3" d="M5177.9,1135.1l-803.4,803.4c7.2-0.5,14.4-1.1,21.6-1.8l780.1-780.1
			C5176.8,1149.5,5177.4,1142.3,5177.9,1135.1z"/>
		<path class="st3" d="M5170.8,1200.8l-730.7,730.7c7.9-1.2,15.8-2.4,23.6-3.8l703.3-703.3
			C5168.4,1216.5,5169.7,1208.7,5170.8,1200.8z"/>
		<path class="st3" d="M5157.1,1273.2l-644.5,644.5c8.9-2.1,17.7-4.3,26.4-6.7l611.4-611.4C5152.8,1290.9,5155,1282,5157.1,1273.2z"
			/>
		<path class="st3" d="M5133.3,1355.5L4594.9,1894c10.5-3.6,20.9-7.4,31.2-11.4l495.9-495.9C5126,1376.4,5129.8,1366,5133.3,1355.5z
			"/>
		<path class="st3" d="M5091.7,1455.7l-396.6,396.6c14.1-6.9,28-14.2,41.7-21.9l333-333C5077.5,1483.8,5084.8,1469.9,5091.7,1455.7z
			"/>
		<path class="st3" d="M4991.5,1613.9l-138.2,138.2C4904.4,1711.4,4950.8,1665,4991.5,1613.9z"/>
	</g>
	<circle class="st6" cx="4322.9" cy="1065.6" r="861.6"/>
	<g class="st7">
		<g class="st8">
			<polygon class="st9" points="4976.2,1789.2 4977.1,1870.1 5002.1,1869.8 5009.6,1794.6 			"/>
			<polygon class="st9" points="4923.3,1917.3 4933,2829.5 5666,2821.7 5657.8,1845.8 			"/>
			<path class="st3" d="M5643.8,1845.9L5643.8,1845.9c-0.3-29.5-34-53.1-75.2-52.7l-572.9,6.1l-53.2,107.5l627.2-6.7
				C5610.9,1899.7,5644.1,1875.4,5643.8,1845.9z"/>
			<g>
				<path class="st10" d="M5616,1804.9c0.2,0.1,0.3,0.2,0.5,0.3C5616.3,1805,5616.1,1804.9,5616,1804.9z"/>
				<path class="st10" d="M5604.1,1799.3c0.1,0,0.3,0.1,0.4,0.2C5604.4,1799.4,5604.2,1799.3,5604.1,1799.3z"/>
				<path class="st10" d="M5630.6,1816c0.1,0.1,0.2,0.2,0.3,0.3C5630.8,1816.2,5630.7,1816.1,5630.6,1816z"/>
				<path class="st10" d="M5638.2,1866.7c0,0.1-0.1,0.1-0.1,0.2C5638.1,1866.8,5638.2,1866.7,5638.2,1866.7z"/>
				<path class="st10" d="M5635.1,1871.4c-0.1,0.1-0.1,0.2-0.2,0.2C5635,1871.5,5635.1,1871.5,5635.1,1871.4z"/>
				<path class="st11" d="M5604,1799.2L5604,1799.2c0,0,0.1,0,0.1,0C5604.1,1799.3,5604,1799.3,5604,1799.2z"/>
				<path class="st11" d="M5607.4,1800.6c-1-0.4-1.9-0.8-2.9-1.2c0.9,0.4,1.8,0.8,2.7,1.2L5607.4,1800.6z"/>
				<path class="st11" d="M5604.5,1799.4c-0.1,0-0.3-0.1-0.4-0.2c0,0-0.1,0-0.1,0l-611.5,6.5l-0.7,1.4l615.5-6.5
					C5606.3,1800.2,5605.4,1799.8,5604.5,1799.4z"/>
				<path class="st11" d="M5618,1806c-0.5-0.3-1-0.6-1.5-0.9c0.5,0.3,0.9,0.6,1.4,0.9L5618,1806z"/>
				<path class="st11" d="M5615.7,1804.7L5615.7,1804.7c0.1,0.1,0.2,0.1,0.3,0.2C5615.9,1804.8,5615.8,1804.7,5615.7,1804.7z"/>
				<path class="st11" d="M5616.5,1805.1c-0.2-0.1-0.3-0.2-0.5-0.3c-0.1-0.1-0.2-0.1-0.3-0.2l-626,6.6l-0.7,1.4l628.9-6.7
					C5617.4,1805.8,5617,1805.4,5616.5,1805.1z"/>
				<path class="st11" d="M5625.7,1811.5c-0.6-0.5-1.1-0.9-1.7-1.4l-0.1,0C5624.5,1810.6,5625.1,1811.1,5625.7,1811.5L5625.7,1811.5
					z"/>
				<path class="st11" d="M5623.9,1810.2l-636.9,6.8l-0.7,1.4l639.4-6.8C5625.1,1811.1,5624.5,1810.6,5623.9,1810.2z"/>
				<path class="st11" d="M5630.2,1815.6L5630.2,1815.6c0.1,0.1,0.2,0.2,0.4,0.4C5630.4,1815.9,5630.3,1815.8,5630.2,1815.6z"/>
				<path class="st11" d="M5631.5,1817c-0.2-0.2-0.4-0.5-0.7-0.7C5631.1,1816.6,5631.3,1816.8,5631.5,1817L5631.5,1817z"/>
				<path class="st11" d="M5630.9,1816.3c-0.1-0.1-0.2-0.2-0.3-0.3c-0.1-0.1-0.3-0.2-0.4-0.4l-646,6.9l-0.7,1.4l648-6.9
					C5631.3,1816.8,5631.1,1816.6,5630.9,1816.3z"/>
				<path class="st11" d="M5636,1822.5c-0.3-0.5-0.7-0.9-1-1.4l0,0C5635.3,1821.6,5635.6,1822.1,5636,1822.5L5636,1822.5z"/>
				<path class="st11" d="M5634.9,1821.2l-653.5,6.9l-0.7,1.4l655.2-7C5635.6,1822.1,5635.3,1821.6,5634.9,1821.2z"/>
				<path class="st11" d="M5639.3,1828.1c-0.2-0.5-0.5-0.9-0.7-1.4l-0.1,0C5638.7,1827.1,5639,1827.6,5639.3,1828.1L5639.3,1828.1z"
					/>
				<path class="st11" d="M5638.5,1826.7l-659.9,7l-0.7,1.4l661.3-7C5639,1827.6,5638.7,1827.1,5638.5,1826.7z"/>
				<path class="st11" d="M5641.7,1833.6c-0.2-0.5-0.3-0.9-0.5-1.4l-0.1,0C5641.2,1832.7,5641.4,1833.1,5641.7,1833.6L5641.7,1833.6
					z"/>
				<path class="st11" d="M5641.1,1832.2l-665.2,7.1l-0.7,1.4l666.4-7.1C5641.4,1833.1,5641.2,1832.7,5641.1,1832.2z"/>
				<path class="st11" d="M5643.1,1839.1c-0.1-0.5-0.2-0.9-0.3-1.4l-0.1,0C5642.8,1838.2,5643,1838.7,5643.1,1839.1L5643.1,1839.1z"
					/>
				<path class="st11" d="M5642.7,1837.8l-669.6,7.1l-0.7,1.4l670.6-7.1C5643,1838.7,5642.8,1838.2,5642.7,1837.8z"/>
				<path class="st11" d="M5643.8,1844.7c0-0.5,0-0.9-0.1-1.4l-0.1,0C5643.6,1843.8,5643.7,1844.2,5643.8,1844.7L5643.8,1844.7z"/>
				<path class="st11" d="M5643.6,1843.3l-673.2,7.1l-0.7,1.4l674-7.2C5643.7,1844.2,5643.6,1843.8,5643.6,1843.3z"/>
				<path class="st11" d="M5643.5,1850.3L5643.5,1850.3c0.1-0.5,0.1-0.9,0.2-1.4l-0.1,0C5643.6,1849.3,5643.6,1849.8,5643.5,1850.3z
					"/>
				<path class="st11" d="M4967.6,1856l-0.7,1.4l676.6-7.2c0-0.5,0.1-0.9,0.1-1.4L4967.6,1856z"/>
				<path class="st11" d="M5642.6,1855.8c0.1-0.5,0.2-0.9,0.3-1.4l-0.1,0C5642.7,1854.9,5642.7,1855.4,5642.6,1855.8L5642.6,1855.8z
					"/>
				<path class="st11" d="M4964.1,1863l678.4-7.2c0.1-0.5,0.2-0.9,0.3-1.4l-678,7.2L4964.1,1863z"/>
				<path class="st11" d="M5640.8,1861.4c0.2-0.5,0.4-0.9,0.5-1.4l-0.1,0C5641.1,1860.5,5640.9,1860.9,5640.8,1861.4L5640.8,1861.4z
					"/>
				<path class="st11" d="M4961.4,1868.6l679.4-7.2c0.2-0.5,0.3-0.9,0.5-1.4l-679.2,7.2L4961.4,1868.6z"/>
				<path class="st11" d="M5638.8,1865.6L5638.8,1865.6c-0.3,0.4-0.4,0.7-0.6,1.1C5638.4,1866.3,5638.6,1866,5638.8,1865.6z"/>
				<path class="st11" d="M5638,1867c0,0,0-0.1,0.1-0.1C5638.1,1866.9,5638,1866.9,5638,1867L5638,1867z"/>
				<path class="st11" d="M4958.6,1874.2l679.4-7.2c0,0,0.1-0.1,0.1-0.1c0-0.1,0.1-0.1,0.1-0.2c0.2-0.4,0.3-0.7,0.5-1.1l-679.5,7.2
					L4958.6,1874.2z"/>
				<path class="st11" d="M5635.3,1871.2L5635.3,1871.2c-0.1,0.1-0.1,0.1-0.1,0.2C5635.2,1871.3,5635.2,1871.3,5635.3,1871.2z"/>
				<path class="st11" d="M5634.2,1872.6c0.3-0.3,0.5-0.6,0.7-1C5634.7,1872,5634.4,1872.3,5634.2,1872.6L5634.2,1872.6z"/>
				<path class="st11" d="M4955.8,1879.8l678.3-7.2c0.3-0.3,0.6-0.6,0.8-1c0.1-0.1,0.1-0.2,0.2-0.2c0-0.1,0.1-0.1,0.1-0.2
					l-678.7,7.2L4955.8,1879.8z"/>
				<path class="st11" d="M5629.1,1878.2c0.5-0.5,0.9-0.9,1.4-1.4l-0.1,0c-0.5,0.5-1,0.9-1.4,1.4L5629.1,1878.2z"/>
				<path class="st11" d="M4953.1,1885.4l676-7.2c0.5-0.5,1-0.9,1.4-1.4l-676.7,7.2L4953.1,1885.4z"/>
				<path class="st11" d="M5622.5,1883.8c0.6-0.5,1.2-0.9,1.8-1.4l-0.1,0C5623.6,1882.9,5623.1,1883.4,5622.5,1883.8L5622.5,1883.8z
					"/>
				<path class="st11" d="M4950.3,1891l672.2-7.1c0.6-0.5,1.2-0.9,1.8-1.4l-673.2,7.1L4950.3,1891z"/>
				<path class="st11" d="M5613.4,1889.5c0.9-0.5,1.7-0.9,2.5-1.4l-0.1,0c-0.8,0.5-1.7,1-2.6,1.4L5613.4,1889.5z"/>
				<path class="st11" d="M4947.5,1896.6l665.8-7.1c0.9-0.5,1.7-0.9,2.6-1.4l-667.7,7.1L4947.5,1896.6z"/>
				<path class="st11" d="M5600.1,1895.2c1.4-0.4,2.7-0.9,4-1.4l-0.1,0c-1.3,0.5-2.7,1-4,1.4L5600.1,1895.2z"/>
				<path class="st11" d="M4944.8,1902.2l655.2-7c1.4-0.5,2.7-0.9,4-1.4l-658.5,7L4944.8,1902.2z"/>
			</g>
			<path class="st12" d="M5600.1,1798l-30.6,102.2l0.2,0c41.2-0.4,74.4-24.7,74.1-54.2C5643.6,1824.5,5625.7,1806.2,5600.1,1798z"/>
			<path class="st13" d="M5569.2,1900.6c0.7,0,1.4,0.1,2.2,0.1c0.9,0.1,1.9,0.1,2.8,0.2c4.9-0.7,10.2-1.7,15.8-3.1
				c5.5-1.3,10.5-2.9,15-4.5l-1-94.1c0,0,0,0,0,0c-1.5-0.6-3.1-1.5-4.6-2.9C5589.3,1831.2,5579.2,1865.9,5569.2,1900.6z"/>
			<path class="st14" d="M5565.6,1783l-589.4,6.3l0.1,10.3l590.1-6.3c42.4-0.4,77,23.1,77.3,52.6l0,0c0.3,29.5-33.8,53.8-76.2,54.3
				l-644.5,6.8l0.1,10.3l643.7-6.8c50.6-0.5,91.2-29.5,90.9-64.7l0,0C5657.4,1810.5,5616.2,1782.4,5565.6,1783z"/>
		</g>
	</g>
	<path class="st15" d="M488.5,2882.5c445.1-9.3,890.1,9.3,1335.2,0c1.3-2.5,31-61.9,0-110.7c-28.8-45.4-98.4-62.8-158.4-29.9
		c-5-9.4-49.5-88.8-146-104.5c-91.9-15-157.2,39.8-166,47.4c-4-11.3-46.2-125.6-162.1-158.1c-100.7-28.2-214.4,17.4-276.7,114.6
		c-8.7-5.8-75.9-49.3-158.1-23.7c-92.7,28.9-120.5,119.5-122.5,126.5c-45.3-18.8-97.5-7.6-130.4,27.7
		C468.9,2809,462.6,2837.7,488.5,2882.5z"/>
	<circle class="st1" cx="5815.7" cy="307.2" r="238.1"/>
	<g>
		<g>
			<path class="st4" d="M5910.5,2543.6c45.1,106.7,148.6,147.3,177.5,157.6l-170.6-405.9C5904.2,2320.6,5861.4,2427.6,5910.5,2543.6
				z M5924.4,2449.7c-18.4,3.7-26-33.8-21-65.9c2.9-18.6,6.7-34.8,17.4-22C5931.5,2374.7,5942.8,2446,5924.4,2449.7z"/>
			<path class="st5" d="M5917.3,2295.3l170.6,405.9c15-34.8,47.6-123.4,18.3-221.1C6069.4,2357.1,5948.1,2308.9,5917.3,2295.3z
				 M6055.4,2469.4c-4.2,5.8-8.1,2.7-26-23.8c-3.5-5.2,0.4-14.9,9.9-8.2C6048.8,2444.2,6059.6,2463.6,6055.4,2469.4z"/>
		</g>
		<g>
			<path class="st4" d="M6107.4,2410.4c-70.5,147.2-16.8,294.2-0.7,334.2l269.1-558.6C6336.8,2195.7,6184,2250.4,6107.4,2410.4z
				 M6219.4,2337.5c-21.1-16,11.4-58.9,49.9-83.6c22.3-14.3,43-25.4,39.5-2.1C6305.2,2275,6240.6,2353.4,6219.4,2337.5z"/>
			<path class="st5" d="M6375.8,2185.9l-269.1,558.6c50.7-16.6,174.6-64.9,250.4-187C6452.3,2404,6390.1,2231.1,6375.8,2185.9z
				 M6320.9,2494c-10.1,0.9-10.4-6,0.8-49.6c2.2-8.6,16.1-13.4,17.9,2.8C6341.3,2463.5,6330.9,2493.1,6320.9,2494z"/>
		</g>
		<g>
			<path class="st4" d="M6559.4,2553l-396.1,192.4c28.4,11.4,132.9,49.1,237.3-1.3C6514.1,2689.3,6552.6,2580.7,6559.4,2553z
				 M6512.9,2600.7c16.5-2.6,8.7,12.2-1.4,28c-17.5,27.4-47.9,50.6-59.3,35.6S6496.3,2603.2,6512.9,2600.7z"/>
			<path class="st5" d="M6295.5,2567.1c-86.5,54.1-120.6,142.2-132.2,178.2l396.1-192.4C6527.3,2542.9,6404.4,2499.1,6295.5,2567.1z
				 M6373.9,2579.3c11.5,1.2,8.1,11.1,2.1,12.7c-30.9,8.1-35.8,7.8-35.2,0.7C6341.4,2585.5,6362.4,2578,6373.9,2579.3z"/>
		</g>
		<path class="st15" d="M5244.5,2867.5c445.1-9.3,890.1,9.3,1335.2,0c1.3-2.5,31-61.9,0-110.7c-28.8-45.4-98.4-62.8-158.4-29.9
			c-5-9.4-49.5-88.8-146-104.5c-91.9-15-157.2,39.8-166,47.4c-4-11.3-46.2-125.6-162.1-158.1c-100.7-28.2-214.4,17.4-276.7,114.6
			c-8.7-5.8-75.9-49.3-158.1-23.7c-92.7,28.9-120.5,119.5-122.5,126.5c-45.3-18.8-97.5-7.6-130.4,27.7
			C5224.9,2794,5218.6,2822.7,5244.5,2867.5z"/>
	</g>
	
		<ellipse transform="matrix(0.9239 -0.3827 0.3827 0.9239 -17.4671 2409.9248)" class="st16" cx="6049" cy="1248.9" rx="36.6" ry="36.6"/>
	
		<ellipse transform="matrix(0.9239 -0.3827 0.3827 0.9239 -22.1146 2289.5435)" class="st16" cx="5744.1" cy="1200.4" rx="140.3" ry="140.4"/>
	<circle class="st16" cx="6225" cy="1294.9" r="14.6"/>
	<ellipse class="st6" cx="5401.8" cy="1073.9" rx="370.2" ry="370.1"/>
	<g>
		<path class="st17" d="M296,2091.4v93.4c0,84.8-50.2,157.9-122.4,191.3c-26.8,12.4-56.6,19.3-88.1,19.3h-96.2
			c-31.4,0-61.3-6.9-88.1-19.3c-72.3-33.3-122.4-106.4-122.4-191.3v-93.4c0-13.9,1.5-27.4,4.2-40.4c18.6-87.3,96.1-152.8,189-152.8
			h130.9c93.4,0,171.3,66.3,189.3,154.4C294.7,2065.1,296,2078.1,296,2091.4z"/>
		<path class="st17" d="M293.8,2455.1v610.5c0,116.3-94.3,210.5-210.5,210.5h-96.2c-116.3,0-210.5-94.3-210.5-210.5v-610.5
			c0-18.1,2.5-35.6,7.1-52.1c8.5-30.5,24.3-57.9,45.4-80.3c35.2-37.4,85.2-60.7,140.6-60.7h130.9
			C207.3,2261.9,293.8,2348.4,293.8,2455.1z"/>
		<path class="st17" d="M-76.7,1917.8h225c-23.1-35.1-30.9-70.1-23.1-105.2H-53.5C-43.2,1845.1-53.6,1880.5-76.7,1917.8z"/>
		<path class="st18" d="M-46.5,1826h163.4c11.5,0,20.9-9.3,20.9-20.9v-83.6c0-11.5-9.3-20.9-20.9-20.9H-46.5
			c-11.5,0-20.9,9.3-20.9,20.9v83.6C-67.4,1816.6-58,1826-46.5,1826z"/>
		<polygon class="st18" points="-50.2,1821.7 -49.6,1840.8 122.3,1840.8 122.3,1821.7 		"/>
		<line class="st19" x1="-49.2" y1="1828.4" x2="123.3" y2="1828.4"/>
		<polygon class="st20" points="-53.1,1865.2 10.3,1840.8 -49.6,1840.8 		"/>
		<path class="st21" d="M274.9,2181.5v-81.9c0-11.7-1.2-23.1-3.6-34.1c-107.1-1-375.5-3.2-467.6-1.4c-2.5,11.4-3.9,23.3-3.9,35.4
			v81.9c0,60,29.9,113.2,76.3,147c-11.7,7.7-22.4,16.7-31.9,26.8c-19.6,20.8-34.2,46.2-42.1,74.4c-4.3,15.4-6.6,31.6-6.6,48.3v565.8
			c0,107.7,87.4,195.1,195.1,195.1h89.2c107.8,0,195.1-87.4,195.1-195.1v-565.8c0-61.6-31.1-115.9-78.4-148.1
			C244.1,2296.4,274.9,2242.4,274.9,2181.5z"/>
	</g>
	<g class="st7">
		<path class="st22" d="M-62,3306.5c-2.1-11.8-9.4-21.8-11.3-33.7c-2.9-18.3,7.5-35.4,11.2-53.5c4-19.3,1.5-43,14.8-55.3
			c2.8-2.6,6-4.3,9.3-6.1c6.6-3.6,13.2-7.1,19.8-10.7c9-4.9,18.3-9.8,28.2-11c15.5-1.8,31,5.9,42.8,17.9s20.1,27.9,26.9,44.2
			c7.8,18.7,13.9,38.5,18,58.7c3.9,18.8,6.1,38.2,12.6,56c5.2,14.3,13.1,27.3,16.6,42.3c5.1,22.2,0,45.7-6.7,67.3
			c-1.7,5.4-3.6,11-7.2,14.8c-7.3,7.7-18.6,6-28.3,3.6c-13.4-3.3-26.7-6.9-40-10.7c-11.2-3.3-22.4-6.8-32.4-13.7
			c-20.3-14-34.3-36.7-54.9-50.5C-65.7,3350.8-57.4,3333.1-62,3306.5z"/>
		<path class="st23" d="M273.2,3147.4c-2.3,18-11.4,31.4-32.6,28.1c-27.9-4.3-44.5-32.7-50.8-62.5c-2.1-9.8-4.7-20.1-4.4-30.3
			c0.2-7.4,3-23.2,8.8-27.1c3.8-2.6,9.1-1.8,12.3,1.8c1.5,1.7,2.5,3.9,4.2,5.2c4.1,3.2,9.7,0.1,14.6,1.1
			c7.1,1.5,11.1,11.6,18.2,13.4c1.5,0.4,3.1,0.4,4.5,1.1c1.6,0.8,2.8,2.3,3.9,3.8C266.2,3101.5,276.5,3120.9,273.2,3147.4z"/>
		<path class="st24" d="M233.5,3142.4c6.5,16,8,34.4,10.3,52.4c1.5,11.4,2.9,23.6-1.2,34.1c-4.7,12.1-16.2,19.3-27.6,20.3
			c-11.4,1-22.7-3.4-33-9.3c-21.9-12.6-37.3-37.4-45.2-63.8c-9.6-31.7,3.5-57.6,15.2-86.7c5.4-13.4,12.5-27.6,24.5-32.1
			c1.5-0.6,3.2-0.9,4.6-0.1c2.7,1.6,2.5,6,3.3,9.4c2.1,9.3,12.6,12.3,17.1,20.4c2.9,5.2,3,11.8,5.2,17.4c2.9,7.3,9,11.9,14,17.3
			C226.4,3128,230.5,3135,233.5,3142.4z"/>
		<g class="st8">
			<defs>
				<path id="SVGID_121_" d="M251.9,3070.2c4-10.3,9.2-15.2,16.1-8.7c1.9,1.8,3.3,4.2,5,6.3c7.5,8.9,19.6,8.6,29.7,12.8
					c23.3,9.6,27.6,39.2,37,62c5.1,12.4,12.7,23.5,15.7,36.8c3.3,14.9,0.5,30.5-2.3,45.5c-3.4,17.9-6.8,35.9-10.2,53.8
					c-2.1,10.9-4.2,22-9,31.7c-4.8,9.8-12.1,17.5-19.3,25c-21.4,22.6-42.9,45.1-64.3,67.7c-5.2,5.5-11.1,11.4-18.2,11.8
					c-8.1,0.5-15.5-6.7-19-15.3c-3.5-8.6-4.1-18.4-4.5-27.8c-2.4-50-11.9-103.4,7-150c8.9-22,18.6-42.5,23.1-66.6
					C240,3147,242.7,3094.1,251.9,3070.2z"/>
			</defs>
			<clipPath id="SVGID_1_">
				<use xlink:href="#SVGID_121_"  style="overflow:visible;"/>
			</clipPath>
			<path class="st25" d="M251.9,3070.2c4-10.3,9.2-15.2,16.1-8.7c1.9,1.8,3.3,4.2,5,6.3c7.5,8.9,19.6,8.6,29.7,12.8
				c23.3,9.6,27.6,39.2,37,62c5.1,12.4,12.7,23.5,15.7,36.8c3.3,14.9,0.5,30.5-2.3,45.5c-3.4,17.9-6.8,35.9-10.2,53.8
				c-2.1,10.9-4.2,22-9,31.7c-4.8,9.8-12.1,17.5-19.3,25c-21.4,22.6-42.9,45.1-64.3,67.7c-5.2,5.5-11.1,11.4-18.2,11.8
				c-8.1,0.5-15.5-6.7-19-15.3c-3.5-8.6-4.1-18.4-4.5-27.8c-2.4-50-11.9-103.4,7-150c8.9-22,18.6-42.5,23.1-66.6
				C240,3147,242.7,3094.1,251.9,3070.2z"/>
		</g>
		<g class="st8">
			<defs>
				<path id="SVGID_123_" d="M97.2,3109.2c0.5-0.6,1-1.2,1.5-1.9c3.2-4.4,5-9.9,7.4-14.9c7.3-15.6,19.9-27.7,34.3-33.3
					c3.6-1.4,7.8-2.3,10.9,0.3c3.7,3.1,3.8,9.2,4.3,14.4c2.8,25.7,22.8,41.4,35.1,60.9c14.7,23.2,18,40.2,23.9,67.7
					c4.5,21.1,18.2,37.6,27.5,56.5c19.6,39.8,19,88.6,14.7,134.2c-3,31.4-9.7,66.7-33.2,82.3c-24.9,16.6-57.3,2.6-79.7-18.7
					c-16.4-15.6-30-34.7-43.5-53.7c-22.9-32.3-46.5-66-55.2-106.7c-7.7-36-4.2-73.7,10.1-106.7c9.6-22.1,11.4-51,28.3-67.9
					C88.1,3117.2,93.2,3113.9,97.2,3109.2z"/>
			</defs>
			<clipPath id="SVGID_2_">
				<use xlink:href="#SVGID_123_"  style="overflow:visible;"/>
			</clipPath>
			<path class="st26" d="M97.2,3109.2c0.5-0.6,1-1.2,1.5-1.9c3.2-4.4,5-9.9,7.4-14.9c7.3-15.6,19.9-27.7,34.3-33.3
				c3.6-1.4,7.8-2.3,10.9,0.3c3.7,3.1,3.8,9.2,4.3,14.4c2.8,25.7,22.8,41.4,35.1,60.9c14.7,23.2,18,40.2,23.9,67.7
				c4.5,21.1,18.2,37.6,27.5,56.5c19.6,39.8,19,88.6,14.7,134.2c-3,31.4-9.7,66.7-33.2,82.3c-24.9,16.6-57.3,2.6-79.7-18.7
				c-16.4-15.6-30-34.7-43.5-53.7c-22.9-32.3-46.5-66-55.2-106.7c-7.7-36-4.2-73.7,10.1-106.7c9.6-22.1,11.4-51,28.3-67.9
				C88.1,3117.2,93.2,3113.9,97.2,3109.2z"/>
		</g>
		<path class="st27" d="M18.6,3453.4c-7.2-10.7-13.6-22.2-19-34c-31.8-69.6-51.5-185.2-5.8-252.5c13.6-20.1,33.2-35.3,41.8-58.9
			c4.8-13.3,7.8-30.8,19.7-34.6c10-3.1,19.5,5.9,26.9,14.3c15,16.9,30.8,35.9,32.9,60c1.1,13.2-2,27.2,2.5,39.5
			c4.3,11.7,14.4,18.7,21.8,28.1c34.3,43.4,2.6,122.4,35,167.8c6.4,9,15.1,16,19.9,26.2c3.8,8.1,4.9,17.6,8,26.2
			c4.2,11.7,12.2,21.4,15.3,33.6c5.9,22.7-7.7,47.7-26.4,56.7c-23.4,11.2-43.4,0.5-66.3-4.8c-15.9-3.7-30-2.9-45.4-10.8
			C55.5,3497.9,34.9,3477.5,18.6,3453.4z"/>
		<path class="st28" d="M439.7,3374.4c-1.3,5.9-2.8,11.8-4.5,17.6c-2.7,9.5-6,18.7-10,27.4c-5.5,12.2-12.3,23.5-20.7,33.3
			c-9.8,11.4-21.4,20.4-33.4,28.4c-2.9,2-5.9,3.9-8.9,5.7c-7.3,4.5-14.8,8.6-22.4,12.4c-8.5,4.2-17.1,8-25.9,11.4
			c-19.8,7.5-40.2,12.7-60.9,15.5c-5.4,0.7-10.9,1.2-16,1.2c-21.7,0-39.5-8.1-38.4-38.5c1.3-39.2,18.4-73.8,27.3-110.9
			c7.1-29.6,2.8-65.4,18.9-91.3c14.2-22.9,41-30.5,56.9-51.8c28.6-38.2,6.2-90.4,10.6-136.2c0.9-9.3,2.8-19.7,9.5-24.9
			c2.2-1.7,4.6-2.6,7.1-2.9c5.2-0.5,10.7,1.6,15.3,5.3c1.8,1.4,3.4,3,4.8,4.8c7,8.6,10.8,20,16.5,29.8c4.5,7.6,10.1,14.2,15.8,20.6
			c5.1,5.7,10.2,11.3,14.8,17.5c1.5,2.1,3,4.2,4.4,6.4c6.4,10,11.6,21,16.4,32.1c8.6,19.8,15.6,39.2,20.5,58.7
			c2.5,9.8,4.5,19.7,6,29.6C448.2,3307.2,447.3,3339.5,439.7,3374.4z"/>
		<path class="st29" d="M436,3327.4c-0.2,0.9-0.4,1.5-0.7,1.9c0.2,1.4,0.3,2.8,0.4,4.2c0.4,5.7,0.1,11.3-0.8,16.9
			c-1.6,10.5-4.5,20.6-8.2,30.4c-3.7,9.7-8.2,18.9-12.4,28.3c-1.4,3.1-2.8,6.3-4.3,9.3c8.8-8.2,17.2-17,25.2-26.4
			c2.7,9-0.7,18.3-10,27.4c-11,10.2-23,18.8-36.3,24.9c-3.8,3.1-7.6,6.1-11.4,9.2c-7.7,6.2-14.8,13.3-21.9,20.4
			c-4.9,4.9-9.7,9.8-14.7,14.5c4.5-0.5,9.1-1,13.7-1.3c2.6-0.2,5.1-0.2,7.7-0.3c-3.3,9.5-11.5,12.8-22.4,12.4
			c-2.9-0.3-5.8-0.7-8.8-1c-0.4-0.1-0.7-0.2-1-0.4c-5.3,4.4-10.7,8.6-16.2,12.8c-10.3,7.9-22.1,14.5-34.3,17.1
			c-6.4,1.4-12.9,1.7-19.4,1.8c-3.9,0.1-10.4,2.2-13.6-1.2c-0.8-0.8-1.4-2-1.2-3.2c0.2-1.4,1.4-2.3,2.5-3
			c7.7-4.9,14.3-12.5,22.2-16.7c5.8-3.1,11.6-5.6,17.2-8.9c1.3-7.5,2-15,3-22.5c-2.1-13.3-7.6-25.4-13.1-37.3
			c-2.8-5.9-5.6-11.8-8.1-17.9c-2.4-5.8-4.1-11.8-6.2-17.7c-4.2-12-9.8-23.4-13.4-35.7c-1.9-6.5-3.4-13.2-3.7-20
			c-0.3-5.6-0.2-13.7,3.5-17.8c2-2.2,4.2,0.9,4.5,3.1c0.7,6-0.5,12,0.5,18.1c0.9,6,2.8,11.8,4.8,17.5c4.1,11.3,9.1,22.1,12.7,33.6
			c6.1,19.4,17,36.7,21.3,56.5c0.5-2.8,1-5.6,1.5-8.3c2.7-15.5,5.1-31.3,4.8-47.2c-0.3-13.8-3.3-26.7-8-39.3
			c-9-24-21.4-46.9-19.2-74.1c0.3-4.4,4-2.6,4.2,0.9c0.5,14.9,5.8,29,11.4,42.2c5,11.7,10.6,23.1,14.7,35.3
			c4.7,13.9,6.3,28.6,5.8,43.4c-0.5,16.5-3.1,32.6-6,48.6c-1.8,10.2-2.9,20.7-4.3,31.1c4.7-3.6,9.3-7.2,14.1-10.7
			c6.2-4.6,12.6-8.6,18.9-12.8c3.2-2.2,6.4-4.5,9.4-7c3.5-15.6,4.2-32.1,3.2-48.1c-1-17.6-4.4-34.7-5.8-52.2
			c-0.2-2.4,2.1-4.4,3.1-1.6c6,17.1,7.8,36.9,8.4,55.3c0.4,14-0.1,28.4-3.4,41.9c5.4-4.9,10.4-10.2,14.9-16.2
			c3.7-4.9,7.2-9.9,10.8-14.9c0.5-3.7,1.2-7.3,1.5-10.9c0.9-9.1,1.4-18.2,1.3-27.3c-0.3-29.5-7.5-62.1-23.9-85.2
			c-13-18.4-33.4-35.4-35.4-60.9c-0.3-3.8,3.3-5,4.1-1c2.8,13.8,13.5,24.9,22,34.3c8.4,9.2,16.6,18.4,22.7,29.9
			c7,13.4,11.6,28.3,15,43.3c3.6,15.9,4.7,32.4,4.3,48.7c-0.1,4.8-0.4,9.6-0.8,14.4c2.8-3.7,5.5-7.5,8.2-11.3
			c4.6-6.6,8.9-13.2,12-20.9c2.8-7.2,4.8-14.7,7-22.2c2.2-7.8,4.7-15.3,5.4-23.6c0.2-1.9,0.2-3.9,0.3-5.8
			c-1.7-7.3-1.3-15.4-2.4-22.8c-1.2-8.2-3.1-16.3-5.7-24.1c-4.7-14.2-11.5-26.8-18.6-39.4c-7.4-13-14.6-26.6-23.6-38.2
			c-13.6-17.7-34.8-25-43.2-48.2c-0.9-2.5,1.5-8.7,3.4-4.8c5.8,12.1,16.7,19.2,26.4,26.5c9.7,7.4,17.5,15.6,24.7,26.2
			c8.6,12.6,16.4,26,24.1,39.4c6.5,11.3,11.8,23.6,15.5,36.5c-0.3-2.6-0.8-5.2-1.5-7.8c-1.2-4.1-2.7-8-3.8-12.1
			c-1-3.7-1.7-7.5-2.2-11.3c-0.5-3.8-0.9-7.7-2.2-11.4c-2.3-6.7-7.7-11.1-10.2-17.8c-2.8-7.3-3.8-15.6-4.6-23.5
			c-0.4-3.5-0.7-7-1-10.5c-9.2-14.2-21.2-26.4-28.9-41.8c-5.7-11.4-10-23.6-15-35.4c-2.4-5.7-5.1-11.4-8.2-16.7
			c-3.1-5.4-7.5-10.2-9.2-16.5c5.3-7.6,10.9-4.9,15.3,5.3c3.1,5.5,5.8,11.3,8.3,17.2c5.1,11.9,9.3,24.4,14.8,36
			c5.5,11.5,12.8,21.4,19.7,31.7c-2.1-9.8-4.5-19.7-5.6-29.7c6,1,11.7,4.1,14.8,17.5c0.6,2.6,3,4.2,4.4,6.4
			c3.3,10.3,6.4,20.6,9.3,31.1c5.8,21.1,9.9,42.7,15.6,63.8c2.9,10.7,5.7,21.5,6.6,32.8c0.8,9.3,0.1,18.6,0.7,27.8
			c1.4-16.1,2.9-32.1,3.9-48.2c0.4-5.5,0.6-10.9,0.7-16.4c5.3,6.2,8,15.1,6,29.6C441.8,3293.1,438.9,3310.2,436,3327.4z"/>
		<path class="st28" d="M142.7,3490.8c-3.6-5.9-6.5-12.4-9.6-18.7c1.6,0.5,2.8-0.8,3.5-2.8c1.6-4.6,0.5-9.7,1.2-14.5
			c0.7-4.8,2.3-9.5,3.9-14c3.5-9.8,7.5-19.2,9.7-29.6c2.5-11.7,3.1-23.6,4.2-35.5c1-11.2,3.6-22.1,1.9-33.5
			c-0.7-4.6-4.2-2.6-4.4,1.1c-0.5,11.5-3.8,22.8-5,34.2c-1.2,11.6-2.4,23.5-6,34.5c-3.2,9.7-7.7,18.6-10.6,28.5
			c-1.5,5.3-2.6,10.8-2.9,16.4c-0.1,2.1-0.2,4.7,0.1,7.2c-1.2-2-2.5-3.8-3.9-5.6c-8.2-10.3-19.9-16.2-28-26.6
			c-10.4-13.6-13.1-32.5-18.2-49.9c1.3-3.1,3.1-6.1,4.8-8.7c3.7-6,7.5-11.8,10.8-18.1c7.6-14.2,14.2-29.2,20.8-44.1
			c6.6-15,10.1-30.4,13.5-46.7c1.7-8.3,3.9-16.3,6-24.5c1.9-7.4,4.1-16.2,2.1-23.9c-0.9-3.6-3.7-1.5-4.2,1c-0.8,4.3-0.7,8.7-1.7,13
			c-1,4.2-2.3,8.3-3.5,12.4c-2.3,7.9-4.3,16-6.4,24c-2.2,8.5-4,17-7.1,25.1c-2.9,7.6-6.3,14.8-9.6,22.2c-3.8,8.5-7.7,17-11.8,25.3
			c-0.1-1.6-0.2-3.2-0.2-4.9c0.2-6.1,1.3-12.3,2.5-18.2c2.6-13.2,6.4-26.1,8.8-39.4c1.2-6.4,2.3-12.9,2.8-19.5
			c0.5-6.6,0.1-13.3,0.3-19.9c0.5-14.2,7.1-26.3,11.4-39.3c0.7-2.1-1.2-7.3-3-4c-6.2,11.5-12.1,24-13.6,37.7
			c-0.8,7.2-0.4,14.4-1,21.7c-0.5,7.4-2.4,14.7-4.4,21.6c-4,13.5-8.1,27.1-10.7,41.2c-1.3,7-2.1,14.3-2,21.5
			c0.1,4.7,0.2,10.8,1.9,15.6c-1,1.9-2,3.8-3.1,5.7c-2.3,4.1-4.8,8.4-6.8,13c-1.5-3.8-3.2-7.4-5.2-10.7c-3.9-6.4-8.9-11.8-11.9-18.8
			c-3.2-7.7-3.7-16.5-4.1-25c-0.9-21.7-1.9-43.3-2.8-65c5-7.6,10.5-14.9,15.3-22.8c6.3-10.3,10.5-21.7,13.7-33.7
			c1.6-6.1,3-12.2,4.9-18.1c2-6.1,4.2-12,6.3-18c2.2-6.3,4-12.7,4.8-19.5c0.8-6.7,1.1-13.5,1.9-20.3c0.2-1.9,0-4.6-1.4-5.9
			c-1.2-1-2.8-0.8-3.5,0.9c-2.6,6-3.2,11.8-3.8,18.5c-0.6,6.4-1.8,12.1-3.8,18.1c-4.1,12.3-8.3,24.3-11.4,37.1
			c-3,12.2-7.2,23.1-13.2,33.7c-3.4,5.9-6.9,11.6-10.1,17.6c0-0.5,0-1.1-0.1-1.6c-0.5-10.3-0.9-20.7,0.3-31
			c1.3-10.5,4.2-20.6,6.4-31c3.6-16.8,3.6-33.4,3.8-50.5c0.1-14,3.5-27.1,2.6-41.6c-0.3-4.9-1.3-10.7-5.2-12.9
			c-1.9,2.6-2,6.3-1.9,9.8c0.1,29-3.6,61-11.2,88.6c-3.2,11.4-7.5,22.4-9.9,34c-2.5,11.8-2.9,24.1-3.2,36.3c-0.4,13-0.8,26-1.2,39
			c-0.3-0.9-0.6-1.7-0.9-2.6c-2.1-6.2-3.6-12.4-4.3-19c-0.7-6.8-0.8-13.8-1.9-20.5c-1.1-6.4-2.9-12.7-3.9-19.1
			c-1.1-6.9-0.7-14.1-1-21c-0.3-7.4-0.7-14.8-1.1-22.3c-0.3-7.4-0.4-14.9-1.7-22.2c-0.5-3.1-3-2.8-3.6,0c-1.4,7.6-1.2,15.5-1.3,23.2
			c-0.1,7.4-0.1,14.9-0.1,22.3c0,7.4-0.3,14.9,0.7,22.3c0.9,6.7,2.8,13.2,4,19.9c1.1,6.5,1.3,13.1,1.9,19.7c0.7,7.3,2.2,14.1,4.4,21
			c1.9,5.8,3.9,11.6,6.5,17c0.5,1.1,1,2.1,1.5,3.3c0,1.1-0.1,2.1-0.1,3.2c-0.9-1.8-1.8-3.6-2.6-5.4c-5.2-11.5-8.8-23.9-12.9-36
			c-3.9-11.6-8.7-22.3-14.7-32.6c-5.5-9.4-11.4-18.7-15.3-29.2c-1.6-4.5-4.7-0.1-4.1,3.1c2.1,11.5,7.1,21,12.6,30.8
			c5.8,10.4,10.2,21.2,13.9,32.8c3.9,12.1,7.4,24.4,12.3,36.1c3,7.1,6.3,15.2,10.7,21.8c0.1,2.2,0.4,4.4,0.8,6.5
			c2.1,11.1,8,20.7,12.9,30.6c7.7,15.4,13.3,32.2,19.2,48.7c-1.7-1.9-3.3-3.9-5-5.7c-8.3-9.1-18.8-14.3-28.2-21.6
			c-9.4-7.4-18.7-15.7-27.6-24c-7.5-7-12.9-16.4-18.2-25.6c-2-3.5-4.1,2.2-3.2,4.5c4.2,10.8,8.8,20.8,16.4,28.8
			c4.4,4.6,9.3,8.6,13.7,13.2c4.6,4.7,9.2,9.5,13.9,14c9.2,8.6,20.4,14,29,23.5c4,4.4,7.7,9.2,12.4,12.7c1.7,1.2,3.8,2.7,6,4
			c4.6,10.5,10,20.5,16.8,29.4c8.8,11.5,19.6,20.5,29.9,30.3c11.3,10.8,22.1,22.6,35,30.8c12.8,8.2,28.4,12.4,42.1,6.7
			C176.2,3522.3,155.3,3511.3,142.7,3490.8z"/>
		<path class="st30" d="M152.3,3480.3c-21.5-11.5-42-26.2-65-35.6c-9.5-3.9-19.5-6.6-28.5-11.7c-28.7-16.2-45.2-54.5-74.8-68.3
			c-17.4-8.1-37.5-6.7-54.1-17c-5.3-3.3-10.1-7.8-15.7-10.3c-5.6-2.5-12.6-2.7-17,2c-2.6,2.8-4,6.9-4.8,11c-3.4,17,1.3,36,12,48.4
			c6.8,7.9,15.7,13.1,21.8,21.7c7.5,10.6,10,25,17.5,35.6c15.1,21.3,43.7,19,64.4,32.6c11.4,7.4,20.2,19.6,32,26.2
			c15.2,8.5,33.1,6.4,49.7,10.1c12.7,2.8,24.8,9.1,37.6,11c21.3,3.2,43.9-1.8,65.3-2.2c9.9-0.2,19.8-1,29.7-2.4
			c4.3-0.6,9.7-2.6,9.8-7.6c0.1-4.5-4.2-7.1-7.8-8.6C199.5,3504.6,176,3493.5,152.3,3480.3z"/>
	</g>
	<g>
		<path class="st5" d="M6005.9,2738.6c-47.5,26.8-56.9,90.5-60.8,117.3c-24,167.2,103.1,312.6,166.1,319.5
			c63,6.9,97.3-11.5,119.1-1.1c21.8,10.3,52.7,19.5,113.4-29.8c66.7-54.1,172.2-264.5,77.9-369.9c-24.9-27.8-71.7-57.3-122.3-56.7
			c-55.1,0.7-70.1,36.5-128,30.1c-39.2-4.3-48.5-22.5-95.3-23.2C6061,2724.6,6031.6,2724.2,6005.9,2738.6z"/>
		<g>
			<path class="st31" d="M6200.6,3172.7c-25.5,0-51.3-10.7-75.9-32.2c-1.6-1.4-1.7-3.8-0.4-5.4c1.4-1.6,3.8-1.7,5.4-0.4
				c29.5,25.8,88.6,58.5,152.7-12.3c1.4-1.6,3.8-1.7,5.4-0.3c1.6,1.4,1.7,3.8,0.3,5.4C6260.9,3157.6,6231,3172.7,6200.6,3172.7z"/>
		</g>
		<path class="st32" d="M6421.6,2774.6c-24.9-27.8-71.7-57.3-122.3-56.7c-55.1,0.7-70.1,36.5-128,30.1
			c-39.2-4.3-48.5-22.5-95.3-23.2c-15-0.2-44.4-0.6-70.1,13.9c-47.5,26.8-56.9,90.5-60.8,117.3c-2.7,19.1-3.5,37.9-2.6,56.3
			c15.6-108.1,37-145.3,74.8-152.5c42.4-8,57.3,55,132.8,64.1c75.6,9.2,147.7-67.6,185.5-69.9c37.8-2.3,124.8,71,116.8,179.8
			c-0.3,4.1-0.4,7.8-0.4,11.2C6465.6,2882.6,6461.5,2819.2,6421.6,2774.6z"/>
		<path class="st4" d="M6396.4,2815.8c0,0,26.3,255.4-134,347c36.8-12.9,62.5-30.8,79-44.7c67.9-57.1,115.6-161.3,84.7-249.7
			C6418,2845.1,6405.9,2827.5,6396.4,2815.8z"/>
		<path class="st32" d="M5987.5,2826.1c0,42.4,4.9,104.6,28.6,175.2c20.9,62.1,49.2,109.6,72.1,142c-22.8-13.9-62.6-42.8-90.5-93.9
			C5942.3,2947.6,5981,2843,5987.5,2826.1z"/>
		<path class="st5" d="M6132,2761c0,0,58.4,4.6,92.8-6.3c-2.9,3.5-17.6,20.4-42.9,22.9C6153.9,2780.4,6135,2763.7,6132,2761z"/>
		<path class="st33" d="M6309.3,2526.1c-13.8,11.4-35.8,28.9-64.5,48.5c-0.8,0.6-1.6,1.1-2.4,1.6l-30.8,42.2c0,0,3.4-9.6,3.7-24.3
			c-13.7,9-21.6,14.9-28.9,25.2c-10.6,15-21.6,41.9-12.2,91.2c15.4,6.7,42,15,70.6,6.7c52.9-15.3,75.7-76.2,78.7-117.4
			C6325.9,2566.9,6316.1,2540.5,6309.3,2526.1z"/>
		<path class="st34" d="M6298.9,2576.3c0,0-0.8,2.8-2.1,7.8c-0.8,2.4-1.3,5.5-2.8,8.8c-1.4,3.3-3,7.1-4.8,11.2
			c-2,4-4.4,8.1-6.9,12.6c-2.6,4.4-5.8,8.7-8.9,13.3c-3.3,4.5-7,8.9-10.7,13.4c-4,4.3-7.9,8.7-12.1,12.9c-4.3,4-8.5,8.3-12.9,12
			c-4.3,3.9-8.8,7.5-13.2,10.8c-4.3,3.5-8.7,6.5-12.8,9.4c-4.1,3-8.2,5.5-11.9,7.9c-14.9,9.4-25.7,14.1-25.7,14.1s2.3-1.7,6.5-4.8
			c2-1.5,4.5-3.4,7.3-5.6c2.8-2.2,6-4.6,9.4-7.3c3.4-2.8,7.1-5.6,10.9-8.8c3.8-3.2,7.9-6.5,12-10.1c4.2-3.5,8.2-7.3,12.5-11.1
			c4.3-3.7,8.3-7.9,12.5-11.9c4.1-4,8-8.3,12-12.4c3.6-4.4,7.5-8.4,10.9-12.6c3.2-4.3,6.7-8.3,9.5-12.3c2.7-4.1,5.5-7.9,7.8-11.5
			c2.1-3.7,4.1-7.1,5.9-10.2c1-1.5,1.6-3,2.3-4.4c0.7-1.4,1.3-2.7,1.8-3.8C6297.7,2578.9,6298.9,2576.3,6298.9,2576.3z"/>
		<path class="st31" d="M6096.3,2639.5c13.3,9.7,38.3,30.7,55.5,66.6c13.9,29,16.8,55.4,17.4,71c4.2,0,8.4,0,12.6,0
			c1.9-30.7-0.3-81.1-31.5-126c-4.1-5.9-8.4-11.2-12.8-16.1L6096.3,2639.5z"/>
		<g>
			<path class="st31" d="M6174.7,2784.9c-17,0-34.2-7.1-50.5-21.4c-2.4-2.1-2.6-5.7-0.5-8.1c2.1-2.4,5.7-2.6,8.1-0.5
				c21.8,19.1,55.6,33.3,92.6-7.6c2.1-2.3,5.7-2.5,8.1-0.4c2.3,2.1,2.5,5.7,0.4,8.1C6214.7,2774.9,6194.8,2784.9,6174.7,2784.9z"/>
		</g>
	</g>
	<g class="st7">
		<g class="st8">
			<defs>
				<path id="SVGID_119_" d="M327.1,3191.9c-24.6,10-44.3,32.9-56.2,59.9c-11.8,26.9-16.2,57.6-16.3,87.8
					c-0.1,44.9,20.3,85.8,45.1,118.6c29.8,39.2,76.5,56.5,120,62.4c42.4,5.7,94.9,9.1,135.8-5.1c29-10.1,56.7-26.7,78.7-51
					c43.7-48.3,59.9-128.3,36.9-192.9c-15.3-42.9-49.8-81.5-89.9-90.1c-21.9-4.7-44.4,3.6-66.4,5.8c-26,2.6-52.1,3.2-78.1,1.9
					C399.6,3187.3,363.4,3177.2,327.1,3191.9z"/>
			</defs>
			<clipPath id="SVGID_3_">
				<use xlink:href="#SVGID_119_"  style="overflow:visible;"/>
			</clipPath>
			<path class="st35" d="M327.1,3191.9c-24.6,10-44.3,32.9-56.2,59.9c-11.8,26.9-16.2,57.6-16.3,87.8
				c-0.1,44.9,20.3,85.8,45.1,118.6c29.8,39.2,76.5,56.5,120,62.4c42.4,5.7,94.9,9.1,135.8-5.1c29-10.1,56.7-26.7,78.7-51
				c43.7-48.3,59.9-128.3,36.9-192.9c-15.3-42.9-49.8-81.5-89.9-90.1c-21.9-4.7-44.4,3.6-66.4,5.8c-26,2.6-52.1,3.2-78.1,1.9
				C399.6,3187.3,363.4,3177.2,327.1,3191.9z"/>
		</g>
		<path class="st36" d="M526.3,3185.6c-2.3,6.1-6.6,11-11.1,15.2c-18.4,17-49.6,29.3-70.5,12.1c-5.4-4.4-11.2-8.3-15-14.6
			c-1.6-2.6-2.8-6.4-2.5-9.8c3.2,0.3,6.4,0.5,9.5,0.6c26,1.3,52.1,0.6,78.1-1.9C518.6,3186.8,522.5,3186.3,526.3,3185.6z"/>
		<path class="st30" d="M437.5,3213.3c-13.5-9.4-25.3-25.5-32.1-40c-4.4-9.5-7.8-19.7-9.8-30.3c-1.4-7.4,0.6-24.3-2.3-30.1
			c6.7,13.5,10.9,25.8,17.6,39.3c3.3,6.7,6.7,13.5,10.8,19.6c5.6,8.3,12.4,15.3,19.3,22.2c0.2-32.8,1-67,4.4-99.6
			c5,6.2,5.7,14.6,7.5,22.8c5.7,26.7,11.3,53.8,10.4,81.2c12.2-36.3,34.3-69.4,61.3-92.8c-17.9,31-31.9,63.4-45.2,97.4
			c19.6-19.4,37.8-44.6,53.8-68.1c-2.7,9.9-6.2,19.5-10.3,28.7c-3.4,7.7-7.4,15.2-12.2,21.9c-12.7,17.5-38.1,40.8-59.7,34.4
			C446.4,3218.7,441.8,3216.4,437.5,3213.3z"/>
	</g>
	<g class="st7">
		<g class="st8">
			<path class="st37" d="M6744.8,3418.1c3.3-19.2-12.8-31.1-23.5-42.7c-13.6-14.8-26.9-30.9-34.5-50.5
				c-10.3-26.4-7.9-58.9-24.8-80.9c-11.8-15.5-31.7-23.5-38.9-42.1c-3.6-9.3-3.3-19.7-5.7-29.4c-3.2-12.9-11.6-24.1-22.1-30.7
				c-9.6-6-18-16-29.6-15.3c-6.9,0.4-13.5,2.8-20.4,3.2c-10,0.5-19.8-3.2-29.6-6c-10.3-2.9-22.7-5-32,1.4
				c-10.3,7.1-20.3,13.9-31.6,19.5c9.1-4.5,30.5,26.6,34.3,32.6c5.9,9.4,10.9,15.6,19,22.4c6.6,5.6,16.8,11.2,22.1,18.1
				c5.5,7.2,5.6,20.9,6.3,29.6c1,12.9,2.1,25.8,5.7,38.2c3.6,12.4,9.9,24.2,19.4,31.8c6.3,5,13.8,8,19.7,13.6
				c6.7,6.4,10.6,15.6,14.5,24.4c8.9,20.2,20.2,41.5,38.8,50c7,3.2,14.5,4.4,21.5,7.7c7.2,3.4,13.5,9,20.2,13.5
				c9.8,6.5,20.7,10.8,31.8,12.7c8.1,1.3,16.5,1.3,23.9-2C6736.9,3433.9,6743.3,3426.9,6744.8,3418.1z"/>
			<path class="st38" d="M6718.5,3405c-35.1-12.3-58.1-50.3-72.4-88.1c-1.6-4.3-3.2-8.6-4.7-12.9c1.7,2,3.5,3.9,5.4,5.6
				c3.7,3.3,7.9,6,12.3,7.8c3.8,1.5,7.8,2.4,11.7,3.4c2.2,0.6,4.5,1.3,6.6,2.2c1.2,0.5,2.3,1.1,3.5,1.8c1.2,0.7,2.3,1.7,3.5,2.5
				c0.2,0.2,1.2-0.4,1-0.7c-1.4-1.8-3.2-3.4-5-4.6c-1.7-1.1-3.5-2.1-5.3-2.8c-3.6-1.4-7.4-2.3-11.1-3.5c-8.9-3-16.6-9.5-22.4-17.6
				c-1.6-2.2-3.1-4.5-4.5-6.8c-6.6-19.6-12.9-39.4-21.2-57.9c1.9,1.2,3.7,2.4,5.6,3.6c3.7,2.4,7.3,5,10.7,7.8
				c-0.1,0.1-0.2,0.3,0,0.3c0.4,0.2,0.8,0.4,1.2,0.6c7,5.8,13.4,12.5,21.2,17c4.2,2.4,8.6,4.3,13.2,5.7c0.4,0.1,1.7-0.8,1-1.1
				c-8.1-2.7-15.6-7.3-22.3-13.2c-1.9-1.7-3.7-3.4-5.6-5.1c2.6,1,5.3,2,7.9,3c2.9,1,5.8,2,8.7,3c1.4,0.5,2.8,0.9,4.2,1.3
				c1.4,0.4,3,1.1,4.5,1.1c0.3,0,1.5-0.6,1-1c-0.5-0.4-1.3-0.6-1.9-0.8c-0.7-0.2-1.4-0.4-2.1-0.6c-1.5-0.5-2.9-0.9-4.4-1.4
				c-2.9-0.9-5.7-1.9-8.5-2.9c-4.4-1.6-8.7-3.3-13.1-4.9c-0.4-0.4-0.9-0.8-1.3-1.2c-3.6-3-7.3-5.8-11.2-8.4c-3.5-2.3-7-4.6-10.6-6.6
				c-4-8.5-8.4-16.7-13.6-24.5c-3-4.6-6.3-9-9.8-13.2c6.3,2.5,12.9,4.1,19.5,4.6c3.3,0.3,6.8,0.4,10.1-0.1c0.3,0,0.7-0.2,0.9-0.5
				c0.1-0.1,0.3-0.5,0-0.5c-2.8-0.2-5.6-0.1-8.5-0.2c-2.8-0.2-5.7-0.5-8.5-1.1c-5.2-1-10.4-2.5-15.4-4.6
				c-9.3-10.8-20-20.2-31.6-27.7c0.7-0.1,1.3-0.2,2-0.2c4.2-0.4,8.3-0.6,12.5-0.7c8.6,0,17.1,0.7,25.7,1.5c4.9,0.4,9.8,0.9,14.7,1.3
				c0.9,0.1,2.2-1.5,0.8-1.8c-17.1-3.1-34.4-5.1-51.6-3.6c-2.7,0.2-5.4,0.6-8,1c-6.7-4-13.6-7.4-20.7-10.2
				c-52.4-20.2-108.9-4.3-161.4,11.8l-3.1,12.1c52.6-16,109.1-32,161.4-11.8c5,1.9,9.8,4.2,14.6,6.7c5.2,10.3,8.3,21.9,9.1,33.6
				c0,0.1,0,0.2,0,0.4c-0.9,4.8-1.9,9.5-3.3,14.2c-1.9,6.4-4.3,12.6-7.3,18.4c-1.6,3.2-3.7,6.2-5.1,9.5c-0.2,0.4,0,0.8,0.4,1
				c0.5,0.2,1-0.2,1.3-0.5c2.2-2.5,3.8-5.5,5.4-8.5c1.5-3,2.9-6,4.2-9.1c1.9-4.7,3.4-9.6,4.6-14.6c-0.3,12.1-2.6,24-5.7,35.5
				c-1.1,4.2-2.3,8.3-3.6,12.4c-1.3,4.1-2.9,8.1-3.8,12.3c-0.2,1,1.3,0.5,1.6,0c1.8-3.5,3.1-7.3,4.4-11.1c1.3-3.7,2.6-7.5,3.8-11.3
				c2.3-7.5,4.2-15.2,5.4-23.1c2.3-15.5,2-31.7-2.9-46.8c-1.1-3.3-2.3-6.5-3.8-9.5c16.4,9.6,31.2,22.8,43.1,38.6
				c1.8,4.4,3.4,9,4.5,13.7c2,8.4,2.7,17.1,2.4,25.7c-0.3,8.3-1.3,16.6-2.6,24.8c-1.3,8-2.9,15.9-4.9,23.7c-2.2,8.6-5,16.9-7.8,25.2
				c-0.1,0.3,0.5,0,0.6-0.2c3.6-7.4,6.3-15.3,8.8-23.2c2.4-7.8,4.3-15.7,5.8-23.8c0.5-2.9,1-5.8,1.4-8.7c0.8,20.6-0.6,41.3-4.6,61.4
				c-1.2,6.2-2.9,12.3-4.3,18.4c-0.1,0.4,1-0.1,1.1-0.4c1.8-5.3,3.1-10.9,4.3-16.4c1.2-5.6,2.2-11.2,3-16.9
				c1.6-11.2,2.3-22.6,2.2-34.1c-0.1-5.8-0.4-11.6-1-17.3c0.4-3.6,0.7-7.2,0.9-10.8c0.5-8.6,0.1-17.3-1.7-25.8
				c-0.4-2-0.9-3.9-1.4-5.9c11.7,18.2,19.8,38.7,27,59.7c-0.2,0.2-0.3,0.4-0.3,0.6c4.8,15.1,6.2,31.1,6.6,46.8
				c0.1,2.2,0.1,4.5,0.1,6.7c-4.6,15.6-7.7,31.8-9.3,48.2c-0.5,4.7-0.8,9.4-0.8,14.1c0,0.5,1.1-0.1,1.2-0.5
				c0.8-8.3,1.3-16.6,2.4-24.9c1.1-8.2,2.5-16.3,4.2-24.3c0.7-3.2,1.5-6.5,2.3-9.7c0.2,12.6,0.4,25.2,2,37.8
				c0.5,4.2,1.3,8.5,2.3,12.6c0.5,2.2,1.1,4.3,1.8,6.4c0.7,2.1,1.3,4.3,2.4,6.2c0.3,0.5,1.5-0.3,1.4-0.8c-0.9-3.8-2.3-7.5-3.2-11.3
				c-0.9-3.8-1.7-7.7-2.2-11.7c-1.1-7.8-1.5-15.7-1.7-23.6c-0.4-15.9,0.3-31.9-1.7-47.7c-0.2-1.6-0.4-3.2-0.7-4.8
				c3.4,10.1,6.8,20.2,10.6,30.1C6657.3,3366.7,6683.4,3392.7,6718.5,3405z"/>
		</g>
		<g class="st8">
			<path class="st39" d="M6428.5,3109.2c-4.1-18.7-9.6-28.8-20.7-43.8c-1.5-2.1-3-4.3-3.4-6.9c-0.8-5.4,3-10,5-15
				c6.9-18-12.1-36.9-12.1-56.8c0-11.2,6.1-21.5,5.4-32.7c-1.3-19.4-22.3-33.3-21.4-52.6c0.2-4.4,1.7-8.8,1.4-13.2
				c-0.4-6.2-4.1-11.6-7.2-16.8c-10.1-17-15.8-37.1-16.3-57.2c-0.3-15,3.2-31.7,14.7-39.2c10.6-7,24.7-3.7,35.6,3.3
				c10.9,7,19.9,17.3,30.2,25.4c5.9,4.7,12.3,8.7,17.5,14.2c10.1,10.7,14.9,26.5,14.9,41.8c0,7.5-1,15.2,1.6,22.1
				c3.8,10.2,14.1,15.7,19.4,25.2c7.6,13.7,2.6,30.9,3.3,46.7c0.7,15.2,6.7,30.7,3.1,45.3c-2,8-6.8,14.6-10,22
				c-0.5,1.1-0.9,2.2-1.3,3.3c-5.4,15.6,0.2,38.4-9,51.8c-2.2,3.2-17.7,12-30.9,19.7C6437.5,3102.1,6428.2,3107.7,6428.5,3109.2z"/>
			<path class="st38" d="M6401.5,3155.3c15.9-3.3,30.5-43.3,36-56.8c10.4-25.3,17.1-52.6,19.5-80.6c4.5-52.2-3.6-100.6-27.3-147
				c28.1,69.3,28.5,151,1,218.8c-8.1,20-19.4,39.7-37.1,49.5c-5.2,2.9,0.5,16.4,6,16.2C6400.3,3155.5,6400.9,3155.4,6401.5,3155.3z"
				/>
			<g>
				<g>
					<path class="st38" d="M6488.4,2910.8c-3,15.5-6.7,31-11,46.1c-4.3,15.1-9.2,29.9-15,44.3c-1.6,4-3.3,8-5,12c-0.9,2-1.7,4-2.6,6
						c-0.9,2-1.9,3.9-2.3,6c-0.4,1.9,2.3,1.1,2.9,0.3c2.3-3,3.7-7,5.3-10.6c1.5-3.6,3-7.2,4.5-10.8c2.9-7.3,5.6-14.7,8.2-22.1
						c5.1-14.8,9.4-30,12.7-45.4c1.8-8.7,3.4-17.4,4.6-26.2C6491,2909,6488.7,2909.7,6488.4,2910.8L6488.4,2910.8z"/>
				</g>
				<g>
					<path class="st38" d="M6438.4,3090.3c5.8-8.1,11.2-16.7,16.8-25c5.7-8.2,11.5-16.3,17.5-24.2c3.4-4.4,7-8.6,10-13.3
						c0.9-1.4-0.8-2-1.7-1.1c-3.6,3.5-6.7,7.5-9.8,11.6c-3.1,4-6.1,8-9.1,12.1c-5.9,8.1-11.6,16.4-17,24.8c-3.1,4.7-6,9.6-8.6,14.7
						c-0.2,0.5,0,0.9,0.4,1.1C6437.4,3091,6438,3090.7,6438.4,3090.3L6438.4,3090.3z"/>
				</g>
				<g>
					<path class="st38" d="M6387.8,2905.3c10.6,16.6,21.5,33.1,30.8,50.6c4.6,8.7,8.8,17.7,12.3,27c3.5,9.3,6.1,18.9,8.2,28.6
						c1.2,5.3,2.2,10.7,3.2,16.1c0.5,2.7,0.9,5.4,1.3,8.1c0.4,2.8,0.8,5.6,1.7,8.3c0.2,0.6,1.1,0.4,1.5,0.3c0.5-0.2,1-0.7,1-1.4
						c0-2.5-0.3-5-0.7-7.5c-0.4-2.5-0.7-5-1.1-7.5c-0.8-4.9-1.5-9.8-2.4-14.6c-1.9-9.8-4.3-19.5-7.6-28.8
						c-6.6-18.9-16.2-36.4-27-52.8c-6.1-9.4-12.6-18.4-19.2-27.4C6389.2,2903.2,6387.2,2904.4,6387.8,2905.3L6387.8,2905.3z"/>
				</g>
				<g>
					<path class="st38" d="M6411.8,3035.3c9.8,14.8,16.8,32.1,19.9,50c0.4,2.5,0.8,5,1.1,7.5c0.3,2.6,0.8,5.2,1.1,7.8
						c0.2,1.3,2.2,0.3,2.2-0.8c0.1-2.4,0.1-4.8-0.1-7.1c-0.2-2.3-0.6-4.7-1-7c-0.8-4.5-1.8-9-3-13.5c-2.5-8.9-6-17.4-10.3-25.4
						c-2.5-4.5-5.4-8.7-8.4-12.7C6412.9,3033.7,6411.4,3034.7,6411.8,3035.3L6411.8,3035.3z"/>
				</g>
				<g>
					<path class="st38" d="M6401,2969.8c8.3,9.9,17.6,18.7,27.6,26.3c2.9,2.2,5.8,4.5,9,5.8c0.7,0.3,2.4-0.8,1.6-1.7
						c-2.1-2.3-4.8-3.9-7.2-5.7c-2.5-1.9-5.1-3.8-7.5-5.9c-4.8-4-9.4-8.3-14-12.6c-2.6-2.5-5.2-5.1-7.7-7.8
						C6402,2967.5,6400.2,2968.8,6401,2969.8L6401,2969.8z"/>
				</g>
				<g>
					<path class="st38" d="M6475.9,2892.2c-2.6,8.8-3.6,18.1-3.4,27.4c0.2,9.4,2,18.5,3.3,27.8c0.3,2.5,0.6,5.1,0.8,7.6
						c0.1,1.3,0.1,2.6,0.1,3.9c0,1.4-0.1,2.6,0.4,3.9c0.6,1.3,2.5,0.1,2.9-0.7c1-2.1,0.8-4.8,0.7-7.2c-0.1-2.3-0.3-4.6-0.6-6.9
						c-0.6-4.6-1.4-9.2-2.1-13.7c-1.4-9.1-2-18.2-1.3-27.4c0.4-5,1-10.1,1.7-15.1c0.1-0.7-0.5-1-1-1
						C6476.7,2890.9,6476.1,2891.5,6475.9,2892.2L6475.9,2892.2z"/>
				</g>
			</g>
		</g>
		<path class="st40" d="M6473.8,3049c12.1-17,37.9-15.6,49.4-33.1c4.1-6.2,5.8-14.1,9.3-20.9c4.8-9.2,13-16.1,22.4-18.6
			c11.7-3.1,24.1,0.4,36.1-1.2c24-3.2,43.8-26.6,68-24.2c8.7,0.8,17,5.1,25.6,6.9c26.4,5.6,55-11.2,79.3,2c14.7,8,24,26.9,22.2,44.6
			c-1.9,17.7-14.9,33-30.7,36c-8.9,1.7-18.1-0.1-27,1.8c-25,5.6-37.1,38.3-60.6,49c-20.6,9.4-44.9-0.1-66.6,5.4
			c-24.9,6.4-43.2,31.5-68.4,36.3c-19.6,3.7-39.3-5.6-57.8-14.7c-8.4-4.1-15.7-4.9-16.4-13.7c-0.3-4.1,4.8-14.3,5.7-19
			C6466.4,3073.9,6465.9,3058.4,6473.8,3049z"/>
		<path class="st41" d="M6388.8,3174.4c97.9-88.8,218.1-153,342.4-178.7c-116.1,8.6-237.3,65.2-325.6,152.2
			C6396.5,3156.8,6394.7,3163.8,6388.8,3174.4z"/>
		<g class="st8">
			<defs>
				<path id="SVGID_117_" d="M6209.8,3405.6c5.8-9.5,10.5-19.8,11.8-30.2c2.4-19.5-2.4-41.1-7.7-59.9c-8.9-31.2-20.9-62.1-21.8-94.5
					c-1.1-37.9,14.2-75.4,40.4-98.9c26.1-23.5,62.5-32.5,95.9-23.7c14.8,3.9,28.7,11,42.6,18c15.7,8,31.4,15.9,47.1,23.9
					c8.2,20.1,21.4,38,29.6,58c10.7,26.1,21.5,52.5,26.3,80.5c4.9,28,3.4,58.2-9.5,82.3c-13,24.5-36.7,40.4-61.8,46.7
					c-25.1,6.3-51.7,3.7-77.2-2.6c-24.7-6.2-51.2-15.7-74.2-5.1c-10.5,4.8-19.1,13.5-27.1,22.3c-22.5,24.8-42.6,52.9-69.2,72.2
					c-26.6,19.3-62.3,28.3-91.1,11.4c-28.5-16.7-31-43.7-19.3-72.5c6.9-17.1,16.9-34.4,13.9-53.2c-1-6.3-3.5-12.5-2.5-18.7
					c7.7,12.7,10.1,28.6,8.6,43.6c-2.3,21.6-18.3,42-10.9,64.5c3.2,9.9,11.3,17.3,20.3,20.7c44.9,17.1,97.3-30.6,122.7-65.5
					C6200.9,3419.2,6205.6,3412.6,6209.8,3405.6z"/>
			</defs>
			<clipPath id="SVGID_4_">
				<use xlink:href="#SVGID_117_"  style="overflow:visible;"/>
			</clipPath>
			<path class="st42" d="M6209.8,3405.6c5.8-9.5,10.5-19.8,11.8-30.2c2.4-19.5-2.4-41.1-7.7-59.9c-8.9-31.2-20.9-62.1-21.8-94.5
				c-1.1-37.9,14.2-75.4,40.4-98.9c26.1-23.5,62.5-32.5,95.9-23.7c14.8,3.9,28.7,11,42.6,18c15.7,8,31.4,15.9,47.1,23.9
				c8.2,20.1,21.4,38,29.6,58c10.7,26.1,21.5,52.5,26.3,80.5c4.9,28,3.4,58.2-9.5,82.3c-13,24.5-36.7,40.4-61.8,46.7
				c-25.1,6.3-51.7,3.7-77.2-2.6c-24.7-6.2-51.2-15.7-74.2-5.1c-10.5,4.8-19.1,13.5-27.1,22.3c-22.5,24.8-42.6,52.9-69.2,72.2
				c-26.6,19.3-62.3,28.3-91.1,11.4c-28.5-16.7-31-43.7-19.3-72.5c6.9-17.1,16.9-34.4,13.9-53.2c-1-6.3-3.5-12.5-2.5-18.7
				c7.7,12.7,10.1,28.6,8.6,43.6c-2.3,21.6-18.3,42-10.9,64.5c3.2,9.9,11.3,17.3,20.3,20.7c44.9,17.1,97.3-30.6,122.7-65.5
				C6200.9,3419.2,6205.6,3412.6,6209.8,3405.6z"/>
		</g>
		<g class="st8">
			<g>
				<path class="st38" d="M6470.7,3105.9c1.6,0,3-0.5,4.6-0.9c1.4-0.4,2.9-0.7,4.4-1c3-0.6,6-1.1,9.1-1.4c6.1-0.6,12.3-0.7,18.5-0.3
					c13,0.9,25.9,3.9,38.6,7.2c3.6,1,7.3,2,10.9,3.1c3.7,1.1,7.4,2.3,11.1,3c1,0.2,3-1.7,1.5-2.4c-3.1-1.5-6.3-2.4-9.6-3.5
					c-3.2-1-6.4-2.1-9.6-3c-6.5-2-13.1-3.8-19.8-5.2c-12.7-2.8-25.8-4-38.7-2.9c-3.6,0.3-7.1,0.9-10.6,1.6c-1.8,0.4-3.5,0.8-5.3,1.3
					c-1.8,0.5-3.7,1.1-5.3,2.2C6469.5,3104.4,6469.2,3105.9,6470.7,3105.9L6470.7,3105.9z"/>
			</g>
			<g>
				<path class="st38" d="M6552,2984.4c-5.6,13.5-11.9,26.6-18.8,39.2c-6.8,12.5-14.3,24.4-22.6,35.7c-2.3,3.2-4.7,6.3-7.2,9.4
					c-2.5,3.1-5.1,6-7.3,9.3c-0.4,0.6-0.6,1.4,0.1,1.9c0.7,0.5,1.7,0.1,2.3-0.4c2.6-2.4,4.9-5.2,7.1-8.1c2.2-2.8,4.4-5.6,6.5-8.5
					c4.2-5.7,8.2-11.5,12.1-17.5c7.7-12.1,14.7-24.7,20.7-38c3.3-7.4,6.3-15,9-22.8C6554.3,2983.3,6552.4,2983.5,6552,2984.4
					L6552,2984.4z"/>
			</g>
			<g>
				<path class="st38" d="M6540,3060.7c18.4-5.3,38.1-3.2,56.8,0.8c18.2,3.8,36.1,9.7,54.3,13.8c5,1.1,10.1,2.2,15.2,2.9
					c2.5,0.4,5.1,0.7,7.6,1c2.7,0.3,5.5,0.3,8.2,0.2c1.1,0,2.6-2.2,0.8-2.5c-9.1-1.4-18.3-2.6-27.3-4.5c-9.1-2-18.2-4.4-27.2-6.9
					c-18.1-4.9-36.4-10-55-11c-11.4-0.7-22.9,0-33.6,4c-0.6,0.2-1.3,0.8-1.2,1.6C6538.7,3060.9,6539.5,3060.9,6540,3060.7
					L6540,3060.7z"/>
			</g>
			<g>
				<path class="st38" d="M6540.9,3061.9c15.3-15.2,30.2-30.9,45.2-46.5c14.6-15.1,29.5-30.1,46.2-42.4c4.6-3.4,9.3-6.5,14.1-9.4
					c4.9-2.9,10-5.5,15-8.2c1-0.6,0.8-2-0.5-1.6c-4.9,1.5-9.6,3.9-14.2,6.4c-4.4,2.5-8.8,5.2-13,8.1c-8.6,5.9-16.8,12.7-24.6,19.9
					c-15.7,14.4-30.2,30.3-44.9,45.8c-8.4,8.9-16.8,17.9-25,27c-0.3,0.4-0.4,1,0.1,1.3C6539.8,3062.5,6540.6,3062.3,6540.9,3061.9
					L6540.9,3061.9z"/>
			</g>
			<g>
				<path class="st38" d="M6633.9,3019.9c11.6-0.8,23.3-0.5,34.9,0.9c11.6,1.4,23.1,4,34.3,7.6c6.4,2.1,12.7,4.8,19.1,6.9
					c0.8,0.3,2.4-1,1.3-1.6c-5.2-3.1-10.8-5.1-16.5-7c-5.7-1.9-11.5-3.6-17.4-4.9c-11.6-2.7-23.4-4.2-35.2-4.5
					c-6.7-0.2-13.4,0.1-20.1,0.8C6633.3,3018.1,6632.4,3020,6633.9,3019.9L6633.9,3019.9z"/>
			</g>
			<g>
				<path class="st38" d="M6695.1,2966.1c-6.9,4.5-13.5,9.5-19.8,15c-6.2,5.5-12.1,11.6-17.6,17.9c-3.1,3.6-6.2,7.2-8.6,11.4
					c-0.3,0.5,0,1.2,0.5,1.3c0.7,0.2,1.3-0.2,1.8-0.7c2.8-3,5.3-6.4,8-9.6c2.6-3.1,5.3-6.1,8.1-9.1c5.7-5.9,11.6-11.5,17.8-16.7
					c3.5-3,7-5.8,10.7-8.5C6696.9,2966.5,6696,2965.5,6695.1,2966.1L6695.1,2966.1z"/>
			</g>
			<g>
				<path class="st38" d="M6586.8,2977.1c-2.8,6.9-5.3,13.9-7.3,21.1c-1,3.5-1.8,7.1-2.5,10.7c-0.4,1.9-0.7,3.7-1,5.6
					c-0.3,1.9-0.7,3.6-0.2,5.5c0.4,1.7,2.5,0.6,3-0.4c1.5-3.3,1.7-7.3,2.4-10.9c0.7-3.6,1.5-7.3,2.3-10.9c1.7-7.1,3.5-14,5.9-20.8
					c0.2-0.6-0.5-1-0.9-1C6587.8,2976.1,6587.1,2976.5,6586.8,2977.1L6586.8,2977.1z"/>
			</g>
			<g>
				<path class="st38" d="M6603.4,3064.2c12.4,10.9,27.3,18.5,42.7,21.8c2.2,0.5,4.3,0.9,6.5,1.2c2.3,0.3,4.7,0.7,6.9,0.4
					c0.5-0.1,1.7-1.2,0.8-1.6c-1.8-0.7-3.7-0.9-5.5-1.2c-1.9-0.3-3.8-0.7-5.6-1.2c-3.7-0.9-7.4-2-11.1-3.3
					c-7.4-2.6-14.6-6-21.4-10.1c-3.9-2.4-7.7-4.8-11.4-7.6C6604.5,3061.9,6602.5,3063.3,6603.4,3064.2L6603.4,3064.2z"/>
			</g>
			<g>
				<path class="st38" d="M6631.2,2957.9c-3.5,3.7-6.5,7.8-9.1,12.4c-1.2,2.2-2.4,4.6-3.4,7c-0.9,2.3-2.1,4.7-1.9,7.3
					c0.1,1.2,1.8,0.5,2.2,0c1.5-2.1,2.2-4.5,3.1-6.9c0.9-2.3,2-4.6,3.1-6.8c2.2-4.3,4.7-8.4,7.6-12.2c0.3-0.4,0.4-1.1-0.2-1.3
					C6632.2,2957.1,6631.6,2957.5,6631.2,2957.9L6631.2,2957.9z"/>
			</g>
		</g>
	</g>
	<g class="st7">
		<g class="st8">
			<defs>
				<path id="SVGID_9_" d="M6598.2,3577.2c-36.4-30.3-73.8-59.7-114.8-83.6c-35-20.4-81.7-34.2-121.2-44.1
					c-7.1-1.8-15-4.4-17.9-11.1c-0.7-1.5-1-3.5,0.1-4.8c0.8-1,2.1-1.4,3.3-1.7c13.6-3.2,27.8-1.7,41.7,0.1
					c70.2,9.1,137.5,21.1,202.6,50.1c39.2,17.4,77.4,39.4,106.2,71.3c10.4,11.6,19.8,24.9,22.3,40.3c0.4,2.3,0.5,4.9-0.8,6.8
					c-2.4,3.4-7.5,2.6-11.4,1.2c-34.9-12.3-61.6-40.7-94.1-58.4c22.8,15.8,42.3,36.4,56.8,60.1c1.9,3.1,3.7,6.8,2.1,10
					c-2.1,4.2-8.2,3.9-12.7,2.6C6636.7,3609.5,6617.2,3593,6598.2,3577.2z"/>
			</defs>
			<clipPath id="SVGID_6_">
				<use xlink:href="#SVGID_9_"  style="overflow:visible;"/>
			</clipPath>
			<path class="st43" d="M6598.2,3577.2c-36.4-30.3-73.8-59.7-114.8-83.6c-35-20.4-81.7-34.2-121.2-44.1c-7.1-1.8-15-4.4-17.9-11.1
				c-0.7-1.5-1-3.5,0.1-4.8c0.8-1,2.1-1.4,3.3-1.7c13.6-3.2,27.8-1.7,41.7,0.1c70.2,9.1,137.5,21.1,202.6,50.1
				c39.2,17.4,77.4,39.4,106.2,71.3c10.4,11.6,19.8,24.9,22.3,40.3c0.4,2.3,0.5,4.9-0.8,6.8c-2.4,3.4-7.5,2.6-11.4,1.2
				c-34.9-12.3-61.6-40.7-94.1-58.4c22.8,15.8,42.3,36.4,56.8,60.1c1.9,3.1,3.7,6.8,2.1,10c-2.1,4.2-8.2,3.9-12.7,2.6
				C6636.7,3609.5,6617.2,3593,6598.2,3577.2z"/>
		</g>
		<g class="st8">
			<defs>
				<path id="SVGID_11_" d="M6582,3396.7c55.6,1.8,111.4,7.9,165.6,21.3c27.8,6.9,55.1,15.6,81.5,26.8c21.3,9,58.8,21.2,70.2,43.3
					c3.4,6.6,3.5,15.3-1.4,20.8c-6.3,7.1-17.5,6.3-26.9,4.7c-44.2-7.4-87.9-18.3-130.5-32.7c4.9,2.2,9.9,4.5,13.2,8.7
					c3.3,4.2,4.3,10.8,0.7,14.6c-4.1,4.3-11.1,3.1-16.9,1.6c-41.5-11.1-84-21.9-124.1-37.7c6.2,3.4,11.9,7.5,17.1,12.3
					c2,1.9,3.9,4,4.4,6.6c2.1,11.9-22.3,6.8-27.6,5.2c-88-26.6-177.6-64.5-268.2-51c-3.4,0.5-7.8,0.6-9.4-2.5
					c-1.3-2.6,0.3-5.6,2.1-7.8c23.9-31,81.2-27.9,116.6-30.9C6492.9,3396.5,6537.5,3395.3,6582,3396.7z"/>
			</defs>
			<clipPath id="SVGID_8_">
				<use xlink:href="#SVGID_11_"  style="overflow:visible;"/>
			</clipPath>
			<path class="st44" d="M6582,3396.7c55.6,1.8,111.4,7.9,165.6,21.3c27.8,6.9,55.1,15.6,81.5,26.8c21.3,9,58.8,21.2,70.2,43.3
				c3.4,6.6,3.5,15.3-1.4,20.8c-6.3,7.1-17.5,6.3-26.9,4.7c-44.2-7.4-87.9-18.3-130.5-32.7c4.9,2.2,9.9,4.5,13.2,8.7
				c3.3,4.2,4.3,10.8,0.7,14.6c-4.1,4.3-11.1,3.1-16.9,1.6c-41.5-11.1-84-21.9-124.1-37.7c6.2,3.4,11.9,7.5,17.1,12.3
				c2,1.9,3.9,4,4.4,6.6c2.1,11.9-22.3,6.8-27.6,5.2c-88-26.6-177.6-64.5-268.2-51c-3.4,0.5-7.8,0.6-9.4-2.5
				c-1.3-2.6,0.3-5.6,2.1-7.8c23.9-31,81.2-27.9,116.6-30.9C6492.9,3396.5,6537.5,3395.3,6582,3396.7z"/>
		</g>
		<g class="st8">
			<defs>
				<path id="SVGID_13_" d="M6310.1,3416.2c133.8,19.1,271,12,401.8-20.7c5-1.2,10.6-3.1,12.6-7.8c2.2-5-1.2-11.1-6-13.8
					c-4.8-2.7-10.6-2.8-16.1-2.6c47-4.8,93.7-11.1,140.2-19.1c14.5-2.5,58.7-3.6,66-16.1c8.9-15.3-9.8-24.5-20.3-28.2
					c-14.4-5-29.9-5.5-45-5.1c5.5-4.1,12.7-4.8,18.9-7.8c6.1-3,11.3-10.7,7.5-16.5c-2-3-5.7-4.4-9.3-5.1
					c-11.1-2.2-22.5-0.5-33.6,1.5c-77.9,14.2-151.8,44.3-226.4,70.5c-74.7,26.2-152.1,49-231.4,47.7
					C6346.8,3392.9,6330.5,3407.4,6310.1,3416.2z"/>
			</defs>
			<clipPath id="SVGID_10_">
				<use xlink:href="#SVGID_13_"  style="overflow:visible;"/>
			</clipPath>
			<path class="st45" d="M6310.1,3416.2c133.8,19.1,271,12,401.8-20.7c5-1.2,10.6-3.1,12.6-7.8c2.2-5-1.2-11.1-6-13.8
				c-4.8-2.7-10.6-2.8-16.1-2.6c47-4.8,93.7-11.1,140.2-19.1c14.5-2.5,58.7-3.6,66-16.1c8.9-15.3-9.8-24.5-20.3-28.2
				c-14.4-5-29.9-5.5-45-5.1c5.5-4.1,12.7-4.8,18.9-7.8c6.1-3,11.3-10.7,7.5-16.5c-2-3-5.7-4.4-9.3-5.1c-11.1-2.2-22.5-0.5-33.6,1.5
				c-77.9,14.2-151.8,44.3-226.4,70.5c-74.7,26.2-152.1,49-231.4,47.7C6346.8,3392.9,6330.5,3407.4,6310.1,3416.2z"/>
		</g>
		<g class="st8">
			<defs>
				<path id="SVGID_15_" d="M6208.7,3509.4c-94.7-6.2-189.5-10.4-284.3-12.6c-43.2-1-83-5.8-125.2-10.2
					c-37.9-3.9-76.7-1.9-113.7-12.6c-13.9-4.1-27.7-10.1-38-20.4s-16.5-25.4-13.3-39.5c10.3-45.7,75.6-62.4,113.5-68.9
					c182.9-31.4,369.9-33.9,555.5-24.4c38.4,2,67.6,35.7,72.9,73.9c5.3,38.1-13.7,78.4-46.3,98.4
					C6294.5,3514.5,6250.1,3512.1,6208.7,3509.4z"/>
			</defs>
			<clipPath id="SVGID_12_">
				<use xlink:href="#SVGID_15_"  style="overflow:visible;"/>
			</clipPath>
			<path class="st46" d="M6208.7,3509.4c-94.7-6.2-189.5-10.4-284.3-12.6c-43.2-1-83-5.8-125.2-10.2c-37.9-3.9-76.7-1.9-113.7-12.6
				c-13.9-4.1-27.7-10.1-38-20.4s-16.5-25.4-13.3-39.5c10.3-45.7,75.6-62.4,113.5-68.9c182.9-31.4,369.9-33.9,555.5-24.4
				c38.4,2,67.6,35.7,72.9,73.9c5.3,38.1-13.7,78.4-46.3,98.4C6294.5,3514.5,6250.1,3512.1,6208.7,3509.4z"/>
		</g>
		<path class="st47" d="M6322.8,3398.5c1.3-6.5,0.9-13.3,0.3-19.9c-1.6-16.4-7.2-32.4-8.8-48.4
			C6332.3,3328.4,6324.8,3388,6322.8,3398.5z"/>
		<path class="st47" d="M6295.6,3440.4c0.7-6.5-0.7-13-1.5-19.5c-1.3-10.2-2.4-23.2,0.8-33.1
			C6303.1,3401.2,6299.5,3426.2,6295.6,3440.4z"/>
		<path class="st47" d="M6334.7,3484.5c1.6-9.8,0.9-17.4,0.8-25.6c-0.2-12.9,0.2-29.9,5.1-47
			C6348.2,3421.8,6340.9,3460.6,6334.7,3484.5z"/>
		<path class="st47" d="M6235.8,3492.1c0.7-6.5-0.7-13-1.5-19.5c-1.3-10.2-2.4-23.2,0.8-33.1
			C6243.3,3452.8,6239.7,3477.9,6235.8,3492.1z"/>
		<path class="st47" d="M6228.6,3390.2c0.7-6.5-0.7-13-1.5-19.5c-1.3-10.2-2.4-23.2,0.8-33.1
			C6236.1,3350.9,6232.5,3376,6228.6,3390.2z"/>
		<path class="st47" d="M5990.9,3477.3c0.7-6.5-0.7-13-1.5-19.5c-1.3-10.2-2.4-23.2,0.8-33.1
			C5998.4,3438,5994.8,3463.1,5990.9,3477.3z"/>
		<path class="st47" d="M5979.1,3471.8c0.6-4.1-0.1-8.2-0.5-12.3c-0.6-6.4-1-14.6,1.3-20.8
			C5984.8,3446.9,5981.9,3462.7,5979.1,3471.8z"/>
		<path class="st47" d="M5963.2,3368.3c0.6-4.1-0.1-8.2-0.5-12.3c-0.6-6.4-1-14.6,1.3-20.8C5968.9,3343.4,5966,3359.3,5963.2,3368.3
			z"/>
		<path class="st47" d="M6248.1,3422.9c-0.3,13.9,2,28,1.9,42c-0.1,13.6-2.7,27.7-2.1,41.1C6263,3504,6247.8,3435.8,6248.1,3422.9z"
			/>
		<path class="st47" d="M6186.3,3340.6c0,16.4-0.3,32.9-0.8,49.3c0.1-24.4-4.5-49.1-5.3-73.6c2.4,0,4.8,0.1,7.2,0.1
			C6187.5,3325.8,6186.3,3335.6,6186.3,3340.6z"/>
		<path class="st47" d="M6185.1,3401.1c0.1-3.7,0.3-7.5,0.4-11.2C6185.5,3393.7,6185.4,3397.4,6185.1,3401.1z"/>
		<path class="st47" d="M6121.2,3492c-3.6-7-3.7-16.9-2.9-24.5c0.5-4.6,1.4-9.2,2.7-13.6c1-3.5,4.5-8.5,4.7-11.9
			c-1,16.2-2.2,31.7,0.1,47.9c0.1,1,0.3,2.1,0,3c-0.3,1-1.3,1.8-2.3,1.5c-0.8-0.2-1.3-0.9-1.7-1.5
			C6121.5,3492.6,6121.4,3492.3,6121.2,3492z"/>
		<path class="st47" d="M6174.8,3405.5c0.1-8.8-9.3-74.3-3.8-74.8c7.3-0.7,4.3,27.8,4.3,33.1
			C6175.2,3377.7,6175,3391.6,6174.8,3405.5z"/>
		<path class="st47" d="M6081.4,3419.9c-1.4-28-5.6-57.2-4.4-85.2c0.4-9,8.2-15.4,8.4-2.1c0.2,13.8-0.1,27.6-0.7,41.4
			C6084.1,3389.4,6083,3404.7,6081.4,3419.9z"/>
		<path class="st47" d="M6056.2,3353.2c-6.9,1-1.7,15-1.3,18.8c3.1,25.5,4.8,51.2,7.1,76.8c0.6-17.8,1.1-35.6,1.3-53.4
			c0.1-8.6,0.2-17.3,0.2-25.9c0-4.7,2.1-14.2-4-15.8C6058.3,3353.2,6057.2,3353.1,6056.2,3353.2z"/>
		<path class="st47" d="M6037.9,3433.3c-2.4-13.4-4.1-26.9-4.9-40.5c-0.2-4-3.3-32.3,4.2-24.7c1.8,1.8,1.6,6.8,1.7,9.1
			c0.3,5.9-1,11.7-1,17.6C6037.8,3406.8,6035.7,3421.3,6037.9,3433.3z"/>
	</g>
	<g class="st7">
		<g class="st8">
			<defs>
				<path id="SVGID_5_" d="M908.3,3442.3c-17.8,7.1-33.9,18.9-50.3,29.3c-19.5,12.3-37.9,26.5-55.2,41.8
					c-35.6,31.4-66.9,67.2-97.1,103.8c-6.9,8.3-13.9,16.8-23.2,22.3c-16.6,9.8-38.1,8-55.4-0.5c-17.3-8.5-31.1-22.8-43.4-37.7
					c-7.8-9.5-15.4-19.7-18.2-31.6c-6-24.9,16.1-40.6,30.2-57.4c49.5-58.7,74.4-140.5,89.9-215.3c15.2,9.9,27.2,18.8,39.3,32.3
					c-7.6,41.8-15.4,83.2-28.4,123.6c28.9-29.6,63-58,91.9-87.5c20.1,8,41.4,20.3,57.1,35.2c-37.3,32.4-70.4,68.5-106.5,101.9
					c22.1-12.9,43.4-27.1,65.7-39.5c22.4-12.5,44.9-25,67.3-37.5c2-1.1,4-2.2,6.2-2.3c2.4-0.2,4.8,0.9,7,2
					c8.3,4.2,17.6,9.7,23.7,16.8C908.6,3442.2,908.4,3442.2,908.3,3442.3z"/>
			</defs>
			<clipPath id="SVGID_14_">
				<use xlink:href="#SVGID_5_"  style="overflow:visible;"/>
			</clipPath>
			<path class="st48" d="M908.3,3442.3c-17.8,7.1-33.9,18.9-50.3,29.3c-19.5,12.3-37.9,26.5-55.2,41.8
				c-35.6,31.4-66.9,67.2-97.1,103.8c-6.9,8.3-13.9,16.8-23.2,22.3c-16.6,9.8-38.1,8-55.4-0.5c-17.3-8.5-31.1-22.8-43.4-37.7
				c-7.8-9.5-15.4-19.7-18.2-31.6c-6-24.9,16.1-40.6,30.2-57.4c49.5-58.7,74.4-140.5,89.9-215.3c15.2,9.9,27.2,18.8,39.3,32.3
				c-7.6,41.8-15.4,83.2-28.4,123.6c28.9-29.6,63-58,91.9-87.5c20.1,8,41.4,20.3,57.1,35.2c-37.3,32.4-70.4,68.5-106.5,101.9
				c22.1-12.9,43.4-27.1,65.7-39.5c22.4-12.5,44.9-25,67.3-37.5c2-1.1,4-2.2,6.2-2.3c2.4-0.2,4.8,0.9,7,2
				c8.3,4.2,17.6,9.7,23.7,16.8C908.6,3442.2,908.4,3442.2,908.3,3442.3z"/>
		</g>
		<polygon class="st49" points="675.3,3341 716.4,3373.9 722.7,3341 		"/>
		<path class="st50" d="M823.7,3130.9c-10.2-8.8-23.7-13.7-37.1-13.4c-4.7,0.1-9.6,0.8-14-0.9c-5-1.9-8.5-6.5-12.3-10.3
			c-7.8-7.8-17.7-12.1-28.4-14.1c-6.9-1.3-17.9-5.2-24.6-3.8c-4.4,0.9-8.1,3.9-12.4,5.1c-9.1,2.6-19.2-2.7-28.2,0.4
			c-7.4,2.5-12.2,10.1-19.6,12.7c-4.2,1.5-8.7,1.1-13.1,1.7c-16,2.2-18.7,11.5-23.7,24c-6,14.6-19.3,25.1-25,40.3
			c-1.3,3.3-2.4,6.8-2.3,10.4c0.1,3.2,1.4,6.3,1.6,9.6c0.7,10.7-10.1,19.5-9.8,30.3c0.2,7.7,5.9,14.1,7.4,21.7
			c0.8,4,0.4,8.2,0.8,12.3c1.5,13.8,12.5,24.4,22.8,33.6c6.9,6.2,14,12.5,22.4,16.4c7.3,3.4,15.5,4.9,22.1,9.6
			c10.3,7.2,15.1,20.9,26,27.3c10,6,22.8,4.3,33.9,7.9c11.8,3.8,21.9,13.4,34.3,13.8c4.8,0.2,9.5-1.1,14.3-1.4
			c10.1-0.6,19.6,4,29.6,3.7c12.1-0.4,20.6-9.9,29.3-17.3c9.9-8.5,19.5-12.8,31.7-17.6c11-4.3,22.6-11,26.1-22.4
			c2.5-8.1,0.4-17.2,3.3-25.2c2-5.5,6.2-9.9,8.8-15c4.1-7.9,4.5-17.2,4.8-26.1c0.6-16.8,0.8-35-9-48.7c-8-11.2-21.3-17.2-30.9-27.1
			c-9.7-10-15.1-23.4-24.6-33.6C826.5,3133.5,825.1,3132.2,823.7,3130.9z"/>
		<polygon class="st49" points="777.8,3413.8 801,3442.2 820.6,3423.3 		"/>
		<polygon class="st49" points="832.3,3456.3 848.7,3477.6 861.4,3469 		"/>
		<path class="st50" d="M1039.7,3315.2c-8.7-9.3-20.9-15.2-33.5-16.3c-4.4-0.4-9.1-0.2-13-2.2c-4.5-2.3-7.3-6.9-10.5-10.9
			c-6.6-8.1-15.4-13.1-25.3-16c-6.4-1.9-16.3-6.7-22.7-6c-4.2,0.4-8,2.8-12.2,3.6c-8.8,1.6-17.8-4.4-26.5-2.5
			c-7.2,1.6-12.5,8.3-19.6,10c-4.1,0.9-8.3,0.2-12.5,0.3c-15.2,0.5-18.7,9-24.7,20.1c-7.1,13.1-20.6,21.7-27.4,35.3
			c-1.5,3-3,6.2-3.2,9.5c-0.2,3.1,0.7,6.1,0.6,9.2c-0.4,10.2-11.4,17.3-12.2,27.5c-0.6,7.2,4.1,13.9,4.8,21.1
			c0.4,3.9-0.5,7.7-0.5,11.6c0,13.1,9.3,24.1,18.1,33.8c5.9,6.5,11.9,13.1,19.4,17.7c6.5,3.9,14.1,6.2,19.8,11.2
			c9,7.8,12.1,21.1,21.7,28.2c8.8,6.6,21,6.3,31.1,10.8c10.8,4.7,19.3,14.8,30.9,16.4c4.5,0.6,9-0.1,13.6,0.1
			c9.6,0.5,18,5.7,27.4,6.4c11.4,0.8,20.4-7.2,29.2-13.4c10.2-7,19.6-10,31.5-13.3c10.8-3,22.3-8.1,26.7-18.4
			c3.1-7.4,2-16.1,5.5-23.3c2.4-4.9,6.8-8.6,9.8-13.2c4.6-7,5.9-15.7,7.1-24c2.2-15.7,4.2-32.8-3.6-46.6
			c-6.4-11.3-18.3-18.3-26.4-28.5c-8.1-10.3-11.9-23.5-19.8-34C1042.1,3317.9,1040.9,3316.5,1039.7,3315.2z"/>
		<g class="st8">
			<defs>
				<path id="SVGID_7_" d="M968.1,3199.7c-10.2-10.9-24.5-17.9-39.3-19.1c-5.2-0.4-10.6-0.2-15.3-2.6c-5.3-2.7-8.6-8.1-12.3-12.8
					c-7.7-9.5-18-15.4-29.6-18.8c-7.5-2.2-19.1-7.8-26.7-7c-4.9,0.5-9.4,3.3-14.3,4.2c-10.3,1.8-20.9-5.2-31.1-2.9
					c-8.4,1.9-14.6,9.7-23,11.7c-4.8,1.1-9.7,0.2-14.6,0.4c-17.8,0.6-21.9,10.5-28.9,23.6c-8.3,15.4-24.1,25.4-32.2,41.4
					c-1.8,3.5-3.5,7.2-3.7,11.2c-0.2,3.6,0.8,7.1,0.7,10.7c-0.5,11.9-13.3,20.3-14.3,32.2c-0.7,8.5,4.8,16.2,5.6,24.7
					c0.4,4.5-0.5,9.1-0.5,13.6c0,15.4,10.9,28.3,21.2,39.7c6.9,7.6,14,15.4,22.8,20.7c7.6,4.6,16.5,7.2,23.2,13.1
					c10.5,9.2,14.2,24.7,25.4,33.1c10.4,7.7,24.6,7.4,36.4,12.6c12.6,5.5,22.6,17.3,36.2,19.2c5.3,0.7,10.6-0.1,15.9,0.1
					c11.2,0.6,21.1,6.7,32.1,7.5c13.4,1,23.9-8.5,34.2-15.7c11.9-8.2,23-11.8,37-15.6c12.7-3.5,26.2-9.5,31.3-21.6
					c3.7-8.6,2.4-18.9,6.5-27.3c2.8-5.8,7.9-10.1,11.5-15.5c5.4-8.2,6.9-18.4,8.3-28.2c2.6-18.4,4.9-38.4-4.3-54.6
					c-7.5-13.3-21.5-21.5-30.9-33.5c-9.5-12.1-13.9-27.6-23.2-39.8C971,3202.9,969.6,3201.2,968.1,3199.7z"/>
			</defs>
			<clipPath id="SVGID_16_">
				<use xlink:href="#SVGID_7_"  style="overflow:visible;"/>
			</clipPath>
			<path class="st51" d="M968.1,3199.7c-10.2-10.9-24.5-17.9-39.3-19.1c-5.2-0.4-10.6-0.2-15.3-2.6c-5.3-2.7-8.6-8.1-12.3-12.8
				c-7.7-9.5-18-15.4-29.6-18.8c-7.5-2.2-19.1-7.8-26.7-7c-4.9,0.5-9.4,3.3-14.3,4.2c-10.3,1.8-20.9-5.2-31.1-2.9
				c-8.4,1.9-14.6,9.7-23,11.7c-4.8,1.1-9.7,0.2-14.6,0.4c-17.8,0.6-21.9,10.5-28.9,23.6c-8.3,15.4-24.1,25.4-32.2,41.4
				c-1.8,3.5-3.5,7.2-3.7,11.2c-0.2,3.6,0.8,7.1,0.7,10.7c-0.5,11.9-13.3,20.3-14.3,32.2c-0.7,8.5,4.8,16.2,5.6,24.7
				c0.4,4.5-0.5,9.1-0.5,13.6c0,15.4,10.9,28.3,21.2,39.7c6.9,7.6,14,15.4,22.8,20.7c7.6,4.6,16.5,7.2,23.2,13.1
				c10.5,9.2,14.2,24.7,25.4,33.1c10.4,7.7,24.6,7.4,36.4,12.6c12.6,5.5,22.6,17.3,36.2,19.2c5.3,0.7,10.6-0.1,15.9,0.1
				c11.2,0.6,21.1,6.7,32.1,7.5c13.4,1,23.9-8.5,34.2-15.7c11.9-8.2,23-11.8,37-15.6c12.7-3.5,26.2-9.5,31.3-21.6
				c3.7-8.6,2.4-18.9,6.5-27.3c2.8-5.8,7.9-10.1,11.5-15.5c5.4-8.2,6.9-18.4,8.3-28.2c2.6-18.4,4.9-38.4-4.3-54.6
				c-7.5-13.3-21.5-21.5-30.9-33.5c-9.5-12.1-13.9-27.6-23.2-39.8C971,3202.9,969.6,3201.2,968.1,3199.7z"/>
		</g>
	</g>
</g>
</svg>
